<svg id="Layer_1" data-name="Layer 1" xmlns="http://www.w3.org/2000/svg" xmlns:xlink="http://www.w3.org/1999/xlink" viewBox="0 0 551.77 551.77"><defs><style>.cls-1{fill:url(#linear-gradient);}</style><linearGradient id="linear-gradient" x1="-57.63" y1="347" x2="412.27" y2="249.99" gradientUnits="userSpaceOnUse"><stop offset="0.04" stop-color="#34c0fb"/><stop offset="0.37" stop-color="#1e4fcd"/><stop offset="0.6" stop-color="#8f50c4"/><stop offset="0.72" stop-color="#c351c0"/><stop offset="1" stop-color="#f6717b"/></linearGradient></defs><path class="cls-1" d="M21.11,318.47l66.4-138.83h36.22l65.89,138.83H108.55l7.63-27.79,19.62.12-30.44-63.88L60.85,318.47ZM104.8,242,83.37,279.15h42.86Zm91.32-33.22H231V318.14h37.39v-108h34.38v108h38.9V180H158.56v59.69l35.55,75.12ZM416,300.12a16.66,16.66,0,0,1,3.78-10.49H361.17l-9.73,28.5h82.24C423.66,316.86,416,309.28,416,300.12Zm24.08-16.38H440c-8.25,1.05-16.7,7.56-16.7,15.1s6.81,13.68,15.06,14.73c.81.1,3.28,0,4.11,0l15.65-.11c.75-.06,1.12.11,1.32-1.67l1.32-43.86a18.72,18.72,0,0,0-3.7-.36c-9.42,0-17.06,6.72-17.06,15a8.61,8.61,0,0,0,0,1m-6.3-1.67c0-.41-.06-.83-.06-1.24,0-10.06,9.28-18.21,20.72-18.21a23.21,23.21,0,0,1,6.36.88v-.88s4.36-28.17-22.8-26.83l-48.29-.34V208.47l59.36.35L460.76,180H361.5s-13.42,4-12.74,24.81v44.27s.66,16.1,16.1,14.09l56.33.17V288a21.62,21.62,0,0,1,12.49-5.94h.07m-14,7.54,83.51,28.7a24.33,24.33,0,0,0,8.42-1.47c7.24-2.66,12.3-8.65,12.3-15.64s-5.06-13-12.3-15.63a23.35,23.35,0,0,0-5.8-1.32.07.07,0,0,1-.05-.12,18.71,18.71,0,0,0,1.57-2.23,16.37,16.37,0,0,0,2.31-8.36c0-10.08-9.28-18.22-20.72-18.22-8.9,0-16.48,4.93-19.41,11.85a.07.07,0,0,1-.11,0,21.38,21.38,0,0,0-7.49-3.84.07.07,0,0,0-.1.07v4.43a.07.07,0,0,0,.06.07,17.76,17.76,0,0,1,7.7,3.53.07.07,0,0,0,.11,0c2.42-5.7,11.58-12.91,18.9-12.91,9.42,0,15.74,6.82,17.06,15,1.07,6.7-4,9.89-4.35,10.41s-1.31.95-1.83,1.57a18.79,18.79,0,0,1,4.87,1.1c6,2.19,15.55,8.32,15,14-.55,5.49-4.7,10-10.27,12.65-2,.95-9.16.27-11.62.27H461.7a.07.07,0,0,0-.07.05,6.35,6.35,0,0,1-6.08,4.5M24.87,363.5l2.87-7.1h10l2.86,7.1h3.17L34,339.93H31.5L21.74,363.5Zm7.94-19.9q1.53,4.33,3,8l.9,2.21H28.78l.89-2.22c1-2.39,2-5.06,3.07-8Zm23.28,17.65a10.92,10.92,0,0,1-1.14.23,8.16,8.16,0,0,1-1.18.08,4,4,0,0,1-1.37-.2,2.47,2.47,0,0,1-.95-.56,2.18,2.18,0,0,1-.53-.86,3,3,0,0,1-.17-1.07v-9.76h5.09v-2.34H50.75v-4.58H48v4.58H44.69v2.34H48v10.18a5.52,5.52,0,0,0,.32,1.92,3.73,3.73,0,0,0,1,1.47,4.31,4.31,0,0,0,1.64.94,7.63,7.63,0,0,0,2.33.32A12,12,0,0,0,55,363.8a6.19,6.19,0,0,0,1.1-.26Zm12.74,0a10.92,10.92,0,0,1-1.14.23,8.16,8.16,0,0,1-1.18.08,4.1,4.1,0,0,1-1.38-.2,2.5,2.5,0,0,1-.94-.56,2.18,2.18,0,0,1-.53-.86,3,3,0,0,1-.17-1.07v-9.76h5.08v-2.34H63.49v-4.58H60.71v4.58H57.43v2.34h3.28v10.18a5.52,5.52,0,0,0,.32,1.92,3.73,3.73,0,0,0,1,1.47,4.31,4.31,0,0,0,1.64.94,7.63,7.63,0,0,0,2.33.32,12,12,0,0,0,1.75-.14,6.19,6.19,0,0,0,1.1-.26Zm9.37,0a5.27,5.27,0,0,1-2-1,4.59,4.59,0,0,1-1.34-1.81,6.67,6.67,0,0,1-.5-2.72H86.12c0-.35,0-.58,0-.68v-.36a12.23,12.23,0,0,0-.52-3.81,7.17,7.17,0,0,0-1.44-2.59A5.7,5.7,0,0,0,82,346.79a7.49,7.49,0,0,0-2.67-.46,7.61,7.61,0,0,0-2.91.56A7.12,7.12,0,0,0,74,348.58a8.43,8.43,0,0,0-1.71,2.81,11.08,11.08,0,0,0-.65,4,10.52,10.52,0,0,0,.67,4A7,7,0,0,0,74.1,362a7.15,7.15,0,0,0,2.78,1.47,12.26,12.26,0,0,0,3.43.46,15.55,15.55,0,0,0,2.89-.25,8.92,8.92,0,0,0,2.25-.7v-2.27a14.32,14.32,0,0,1-2.26.62,13.06,13.06,0,0,1-2.52.22A9.28,9.28,0,0,1,78.2,361.25ZM80.93,349a3.57,3.57,0,0,1,1.25,1,4.35,4.35,0,0,1,.77,1.48,6.18,6.18,0,0,1,.26,1.85h-8.7a5.61,5.61,0,0,1,.47-1.83A4.94,4.94,0,0,1,76,350a4.71,4.71,0,0,1,1.44-1,4.24,4.24,0,0,1,1.78-.37A3.93,3.93,0,0,1,80.93,349ZM93,346.77H90.85V363.5h2.77V351.61a7.55,7.55,0,0,1,2.32-2.16,5.44,5.44,0,0,1,2.77-.78,3.15,3.15,0,0,1,2.48.95,4.64,4.64,0,0,1,.86,3.12V363.5h2.77V352.3a7.6,7.6,0,0,0-.44-2.79,4.85,4.85,0,0,0-1.19-1.84,4.62,4.62,0,0,0-1.77-1,7.39,7.39,0,0,0-2.19-.31,7.51,7.51,0,0,0-1.82.21,6.84,6.84,0,0,0-1.53.59,7.09,7.09,0,0,0-1.26.88,8.73,8.73,0,0,0-1,1.08h-.06Zm16.86,12.55a7.64,7.64,0,0,0,1.69,2.66,6.48,6.48,0,0,0,2.39,1.5,8.34,8.34,0,0,0,2.74.46,6.74,6.74,0,0,0,1.77-.2,5.28,5.28,0,0,0,1.34-.54,5,5,0,0,0,1-.75,9.23,9.23,0,0,0,.75-.81h.07l.57,1.86h2.1V338h-2.78v10.34h0a6.3,6.3,0,0,0-2.06-1.5,6.65,6.65,0,0,0-2.71-.51,7.76,7.76,0,0,0-1.6.18,7.23,7.23,0,0,0-1.68.61,7.69,7.69,0,0,0-1.59,1.1,6.48,6.48,0,0,0-1.34,1.68,9.6,9.6,0,0,0-.93,2.36,12.4,12.4,0,0,0-.35,3.09A10.82,10.82,0,0,0,109.86,359.32ZM112.6,352a5.64,5.64,0,0,1,1.23-2,3.94,3.94,0,0,1,1.61-1.05,5.33,5.33,0,0,1,1.66-.29,5.67,5.67,0,0,1,2.43.52,6.82,6.82,0,0,1,2,1.38v8.76a5.29,5.29,0,0,1-.63.73,6,6,0,0,1-1,.75,5.78,5.78,0,0,1-1.28.58,5.33,5.33,0,0,1-1.6.23,4.79,4.79,0,0,1-2.09-.44,4.28,4.28,0,0,1-1.54-1.26,5.85,5.85,0,0,1-1-2,9.68,9.68,0,0,1-.33-2.62A9.41,9.41,0,0,1,112.6,352Zm27.52,11.46h2.33V352.33a8.45,8.45,0,0,0-.12-1.48,4.45,4.45,0,0,0-.38-1.25,5.35,5.35,0,0,0-2.36-2.37,8.71,8.71,0,0,0-4.22-.9,13.83,13.83,0,0,0-1.43.07,12.2,12.2,0,0,0-2.59.52,7.13,7.13,0,0,0-1,.39v2.29a15.81,15.81,0,0,1,2.27-.66,11.63,11.63,0,0,1,2.42-.23,5.8,5.8,0,0,1,2.76.55,3.62,3.62,0,0,1,1.49,1.4,3.17,3.17,0,0,1,.3.93,7.41,7.41,0,0,1,.09,1.22V354h-.07a14,14,0,0,0-2-.53,14.52,14.52,0,0,0-2.46-.22,8.23,8.23,0,0,0-2.55.37,5.68,5.68,0,0,0-2,1.05,4.76,4.76,0,0,0-1.28,1.67,5.22,5.22,0,0,0-.46,2.24,6,6,0,0,0,.41,2.27,4.8,4.8,0,0,0,2.93,2.76,6.84,6.84,0,0,0,2.27.36,7.31,7.31,0,0,0,1.72-.19,7.47,7.47,0,0,0,1.49-.52,6.41,6.41,0,0,0,1.2-.74,6.27,6.27,0,0,0,.86-.84h.07Zm-.45-4c-.13.13-.33.31-.61.55a7.5,7.5,0,0,1-1,.7,6.81,6.81,0,0,1-1.36.61,5.25,5.25,0,0,1-1.66.26,4.13,4.13,0,0,1-1.28-.19,2.78,2.78,0,0,1-1-.56,2.63,2.63,0,0,1-.69-1,3.55,3.55,0,0,1-.25-1.36,2.65,2.65,0,0,1,1-2.27,4.6,4.6,0,0,1,2.77-.74,13.57,13.57,0,0,1,2.31.21c.71.13,1.31.27,1.82.41ZM150,346.77h-2.15V363.5h2.77V351.61a7.55,7.55,0,0,1,2.32-2.16,5.44,5.44,0,0,1,2.77-.78,3.15,3.15,0,0,1,2.48.95,4.64,4.64,0,0,1,.86,3.12V363.5h2.77V352.3a7.6,7.6,0,0,0-.44-2.79,4.85,4.85,0,0,0-1.19-1.84,4.62,4.62,0,0,0-1.77-1,7.39,7.39,0,0,0-2.19-.31,7.51,7.51,0,0,0-1.82.21,6.84,6.84,0,0,0-1.53.59,6.74,6.74,0,0,0-1.26.88,8.73,8.73,0,0,0-1,1.08h-.06Zm22.59-.24a8.29,8.29,0,0,0-1.91.65,8.37,8.37,0,0,0-1.74,1.16,7.42,7.42,0,0,0-1.42,1.7,8.62,8.62,0,0,0-1,2.33,11.77,11.77,0,0,0-.35,3,10,10,0,0,0,.67,3.84,7.19,7.19,0,0,0,4.48,4.24,10.3,10.3,0,0,0,3.26.51,9.74,9.74,0,0,0,1.32-.08,11.82,11.82,0,0,0,1.26-.21,9.27,9.27,0,0,0,1.08-.31,4.41,4.41,0,0,0,.8-.35v-2.27a11.61,11.61,0,0,1-2.06.62,10.13,10.13,0,0,1-2.1.22,6.42,6.42,0,0,1-2.53-.46,4.91,4.91,0,0,1-1.81-1.31,5.46,5.46,0,0,1-1.1-2,8.25,8.25,0,0,1-.36-2.5,8.64,8.64,0,0,1,.49-3.13,5.55,5.55,0,0,1,1.3-2,4.69,4.69,0,0,1,1.82-1.1,6.75,6.75,0,0,1,2.07-.34,8.92,8.92,0,0,1,1.93.21,17.71,17.71,0,0,1,2.08.64V347.3a6.89,6.89,0,0,0-1.94-.72,10.67,10.67,0,0,0-2.36-.25A9.22,9.22,0,0,0,172.57,346.53Zm16.31,14.72a5.27,5.27,0,0,1-2-1,4.71,4.71,0,0,1-1.35-1.81,6.85,6.85,0,0,1-.49-2.72H196.8c0-.35,0-.58,0-.68v-.36a12.23,12.23,0,0,0-.52-3.81,7.17,7.17,0,0,0-1.44-2.59,5.7,5.7,0,0,0-2.16-1.47,7.49,7.49,0,0,0-2.67-.46,7.61,7.61,0,0,0-2.91.56,7.12,7.12,0,0,0-2.47,1.69,8.43,8.43,0,0,0-1.71,2.81,11.08,11.08,0,0,0-.65,4,10.52,10.52,0,0,0,.67,4,7,7,0,0,0,1.83,2.67,7.15,7.15,0,0,0,2.78,1.47,12.26,12.26,0,0,0,3.43.46,15.55,15.55,0,0,0,2.89-.25,8.92,8.92,0,0,0,2.25-.7v-2.27a14.32,14.32,0,0,1-2.26.62,13.06,13.06,0,0,1-2.52.22A9.28,9.28,0,0,1,188.88,361.25ZM191.61,349a3.57,3.57,0,0,1,1.25,1,4.35,4.35,0,0,1,.77,1.48,6.18,6.18,0,0,1,.26,1.85h-8.7a5.61,5.61,0,0,1,.47-1.83,4.94,4.94,0,0,1,1-1.49,4.71,4.71,0,0,1,1.44-1,4.24,4.24,0,0,1,1.78-.37A3.93,3.93,0,0,1,191.61,349Zm36.36.4q1.18-2.71,2.51-6.33h.15q-.25,5-.25,9v11.4h2.92V339.93h-4.21l-5.65,13.34q-.84,1.94-2.13,5.51h-.09q-1.17-3.22-2.13-5.51l-5.65-13.34h-4.21V363.5h2.92V352.1q0-4.08-.25-9H212q1.26,3.42,2.51,6.33l6,14.07h1.35ZM249.3,363.5h2.33V352.33a8.45,8.45,0,0,0-.12-1.48,4.81,4.81,0,0,0-.39-1.25,5.32,5.32,0,0,0-2.35-2.37,8.74,8.74,0,0,0-4.22-.9,13.88,13.88,0,0,0-1.44.07,11.4,11.4,0,0,0-1.36.2,10.33,10.33,0,0,0-1.22.32,7.29,7.29,0,0,0-1,.39v2.29a16.19,16.19,0,0,1,2.27-.66,11.79,11.79,0,0,1,2.43-.23,5.8,5.8,0,0,1,2.76.55,3.59,3.59,0,0,1,1.48,1.4,2.91,2.91,0,0,1,.31.93,7.41,7.41,0,0,1,.09,1.22V354h-.07a14.56,14.56,0,0,0-2-.53,14.3,14.3,0,0,0-2.45-.22,8.25,8.25,0,0,0-2.56.37,5.68,5.68,0,0,0-2,1.05,4.88,4.88,0,0,0-1.28,1.67,5.37,5.37,0,0,0-.46,2.24,5.78,5.78,0,0,0,.42,2.27,4.74,4.74,0,0,0,1.15,1.7,4.91,4.91,0,0,0,1.78,1.06,6.78,6.78,0,0,0,2.26.36,7.34,7.34,0,0,0,3.21-.71,6.41,6.41,0,0,0,1.2-.74,5.74,5.74,0,0,0,.86-.84H249Zm-.45-4c-.13.13-.34.31-.62.55a8,8,0,0,1-1,.7,6.91,6.91,0,0,1-1.37.61,5.2,5.2,0,0,1-1.66.26,4.07,4.07,0,0,1-1.27-.19,2.82,2.82,0,0,1-1-.56,2.5,2.5,0,0,1-.68-1,3.37,3.37,0,0,1-.25-1.36,2.63,2.63,0,0,1,1-2.27,4.55,4.55,0,0,1,2.76-.74,13.69,13.69,0,0,1,2.32.21c.7.13,1.31.27,1.82.41Zm10.3-12.73H257V363.5h2.78V351.61a7.41,7.41,0,0,1,2.31-2.16,5.47,5.47,0,0,1,2.78-.78,3.18,3.18,0,0,1,2.48.95,4.64,4.64,0,0,1,.85,3.12V363.5H271V352.3a7.81,7.81,0,0,0-.44-2.79,4.85,4.85,0,0,0-1.19-1.84,4.66,4.66,0,0,0-1.78-1,7.9,7.9,0,0,0-4-.1,6.49,6.49,0,0,0-1.53.59,6.82,6.82,0,0,0-1.27.88,9.54,9.54,0,0,0-1,1.08h-.05Zm27.47,16.73H289V352.33a8.45,8.45,0,0,0-.12-1.48,4.8,4.8,0,0,0-.38-1.25,5.4,5.4,0,0,0-2.36-2.37,8.71,8.71,0,0,0-4.22-.9,13.69,13.69,0,0,0-1.43.07,12.2,12.2,0,0,0-2.59.52,6.69,6.69,0,0,0-1,.39v2.29a15.68,15.68,0,0,1,2.26-.66,11.79,11.79,0,0,1,2.43-.23,5.8,5.8,0,0,1,2.76.55,3.62,3.62,0,0,1,1.49,1.4,3.17,3.17,0,0,1,.3.93,7.41,7.41,0,0,1,.09,1.22V354h-.07a13.5,13.5,0,0,0-4.46-.75,8.23,8.23,0,0,0-2.55.37,5.59,5.59,0,0,0-2,1.05,4.91,4.91,0,0,0-1.29,1.67,5.37,5.37,0,0,0-.45,2.24,5.78,5.78,0,0,0,.41,2.27,4.64,4.64,0,0,0,1.16,1.7,4.78,4.78,0,0,0,1.77,1.06,6.84,6.84,0,0,0,2.27.36,7.26,7.26,0,0,0,3.2-.71,5.82,5.82,0,0,0,1.2-.74,5.3,5.3,0,0,0,.86-.84h.08Zm-.45-4c-.13.13-.33.31-.61.55a7.5,7.5,0,0,1-1,.7,6.81,6.81,0,0,1-1.36.61,5.3,5.3,0,0,1-1.66.26,4.09,4.09,0,0,1-1.28-.19,2.78,2.78,0,0,1-1-.56,2.63,2.63,0,0,1-.69-1,3.37,3.37,0,0,1-.25-1.36,2.63,2.63,0,0,1,1-2.27,4.57,4.57,0,0,1,2.76-.74,13.59,13.59,0,0,1,2.32.21c.7.13,1.31.27,1.82.41Zm11.94-12.62a6.78,6.78,0,0,0-2.42,1.68,8.42,8.42,0,0,0-1.71,2.85,13.05,13.05,0,0,0-.29,7,8.74,8.74,0,0,0,.92,2.23,6.19,6.19,0,0,0,1.33,1.56,7.22,7.22,0,0,0,1.57,1,7,7,0,0,0,1.65.53,7.9,7.9,0,0,0,1.54.16,7.06,7.06,0,0,0,2.77-.5,5.8,5.8,0,0,0,2.12-1.49h.06v2.24a5.2,5.2,0,0,1-1.6,4.19,6.79,6.79,0,0,1-4.58,1.38q-.78,0-1.41-.06a12.35,12.35,0,0,1-1.24-.16,10.89,10.89,0,0,1-1.19-.29c-.38-.11-.77-.25-1.18-.41v2.31a8,8,0,0,0,2.08.69,13.73,13.73,0,0,0,3,.29,13.36,13.36,0,0,0,3.63-.46,7.79,7.79,0,0,0,2.8-1.42,6.43,6.43,0,0,0,1.81-2.39,8.17,8.17,0,0,0,.65-3.37V346.77h-2.1l-.57,1.9h-.08a3.7,3.7,0,0,0-.47-.62,5.25,5.25,0,0,0-.94-.78,5.85,5.85,0,0,0-1.42-.66,6.5,6.5,0,0,0-1.93-.28A7.33,7.33,0,0,0,298.11,346.88Zm-1.55,5.69a6.38,6.38,0,0,1,1-2.07,4.67,4.67,0,0,1,1.58-1.35,4.73,4.73,0,0,1,2.18-.48,4.66,4.66,0,0,1,1.52.24,5.69,5.69,0,0,1,1.24.58,5.33,5.33,0,0,1,1,.75,6.37,6.37,0,0,1,.65.72v8.76a6.61,6.61,0,0,1-2,1.39,5.8,5.8,0,0,1-2.42.51,6,6,0,0,1-1.67-.26,4,4,0,0,1-1.62-.95,5.14,5.14,0,0,1-1.22-2,8.83,8.83,0,0,1-.49-3.22A10.62,10.62,0,0,1,296.56,352.57Zm22.85,8.68a5.34,5.34,0,0,1-2-1,4.69,4.69,0,0,1-1.34-1.81,6.68,6.68,0,0,1-.49-2.72h11.75c0-.35,0-.58,0-.68v-.36a12.21,12.21,0,0,0-.53-3.81,7.17,7.17,0,0,0-1.44-2.59,5.66,5.66,0,0,0-2.15-1.47,7.93,7.93,0,0,0-5.59.1,7,7,0,0,0-2.46,1.69,8.29,8.29,0,0,0-1.72,2.81,11.09,11.09,0,0,0-.64,4,10.73,10.73,0,0,0,.66,4,6.89,6.89,0,0,0,1.84,2.67,7,7,0,0,0,2.77,1.47,12.31,12.31,0,0,0,3.43.46,15.55,15.55,0,0,0,2.89-.25,9,9,0,0,0,2.26-.7v-2.27a14.74,14.74,0,0,1-2.27.62,13.06,13.06,0,0,1-2.52.22A9.28,9.28,0,0,1,319.41,361.25ZM322.14,349a3.49,3.49,0,0,1,1.25,1,4.35,4.35,0,0,1,.77,1.48,6.18,6.18,0,0,1,.27,1.85h-8.71a5.87,5.87,0,0,1,.47-1.83,5.13,5.13,0,0,1,1-1.49,4.71,4.71,0,0,1,1.44-1,4.28,4.28,0,0,1,1.79-.37A3.89,3.89,0,0,1,322.14,349ZM346,351.61a8.18,8.18,0,0,1,2.2-2.16,5,5,0,0,1,2.71-.78,4.29,4.29,0,0,1,1.43.23,2.67,2.67,0,0,1,1.09.72,3.2,3.2,0,0,1,.7,1.26,6.27,6.27,0,0,1,.24,1.86V363.5h2.78V352.3a7,7,0,0,0-.56-3,4.8,4.8,0,0,0-3.25-2.73,8.17,8.17,0,0,0-1.9-.24,6.31,6.31,0,0,0-3.39.89,8.91,8.91,0,0,0-2.58,2.45h-.07a5.77,5.77,0,0,0-1.94-2.44,5.28,5.28,0,0,0-3.15-.9,7,7,0,0,0-1.76.21,6.27,6.27,0,0,0-1.48.59,6.77,6.77,0,0,0-1.22.88,10.33,10.33,0,0,0-1,1.08h-.05l-.54-2.32h-2.15V363.5h2.78V351.61a8.12,8.12,0,0,1,2.18-2.16,5,5,0,0,1,2.71-.78,4.23,4.23,0,0,1,1.42.23,2.7,2.7,0,0,1,1.1.72,3.32,3.32,0,0,1,.69,1.26,5.94,5.94,0,0,1,.25,1.86V363.5H346Zm22.12,9.64a5.2,5.2,0,0,1-2-1,4.71,4.71,0,0,1-1.35-1.81,6.68,6.68,0,0,1-.49-2.72H376c0-.35,0-.58,0-.68v-.36a12.23,12.23,0,0,0-.52-3.81,7.47,7.47,0,0,0-1.44-2.59,5.7,5.7,0,0,0-2.16-1.47,7.53,7.53,0,0,0-2.67-.46,7.61,7.61,0,0,0-2.91.56,7.12,7.12,0,0,0-2.47,1.69,8.27,8.27,0,0,0-1.71,2.81,11.08,11.08,0,0,0-.65,4,10.52,10.52,0,0,0,.67,4A7,7,0,0,0,364,362a7.08,7.08,0,0,0,2.78,1.47,12.26,12.26,0,0,0,3.43.46,15.37,15.37,0,0,0,2.88-.25,8.87,8.87,0,0,0,2.26-.7v-2.27a14.62,14.62,0,0,1-2.26.62,13.06,13.06,0,0,1-2.52.22A9.23,9.23,0,0,1,368.08,361.25ZM370.81,349a3.57,3.57,0,0,1,1.25,1,4.53,4.53,0,0,1,.77,1.48,6.51,6.51,0,0,1,.26,1.85h-8.71a5.62,5.62,0,0,1,.48-1.83,5.1,5.1,0,0,1,1-1.49,4.75,4.75,0,0,1,1.45-1,4.24,4.24,0,0,1,1.78-.37A3.93,3.93,0,0,1,370.81,349Zm12.07-2.26h-2.15V363.5h2.77V351.61a7.63,7.63,0,0,1,2.31-2.16,5.5,5.5,0,0,1,2.78-.78,3.15,3.15,0,0,1,2.48.95,4.64,4.64,0,0,1,.85,3.12V363.5h2.78V352.3a7.6,7.6,0,0,0-.44-2.79,4.85,4.85,0,0,0-1.19-1.84,4.62,4.62,0,0,0-1.77-1,7.94,7.94,0,0,0-4-.1,6.84,6.84,0,0,0-1.53.59,6.43,6.43,0,0,0-1.26.88,8.73,8.73,0,0,0-1,1.08h-.06Zm26.17,14.48a10.21,10.21,0,0,1-1.13.23,8.26,8.26,0,0,1-1.18.08,4.06,4.06,0,0,1-1.38-.2,2.5,2.5,0,0,1-.94-.56,2.33,2.33,0,0,1-.54-.86,3.29,3.29,0,0,1-.17-1.07v-9.76h5.09v-2.34h-5.09v-4.58h-2.77v4.58h-3.28v2.34h3.28v10.18a5.3,5.3,0,0,0,.32,1.92,3.63,3.63,0,0,0,1,1.47,4.31,4.31,0,0,0,1.64.94,7.63,7.63,0,0,0,2.33.32,12,12,0,0,0,1.75-.14,5.82,5.82,0,0,0,1.09-.26Zm13.23-16.78a3.21,3.21,0,0,1,1-1.3,4.59,4.59,0,0,1,1.67-.83,8.33,8.33,0,0,1,2.36-.29,14.74,14.74,0,0,1,3.4.4,21.21,21.21,0,0,1,3.07,1V340.8a18,18,0,0,0-3-.95,16.9,16.9,0,0,0-3.58-.36,12,12,0,0,0-3.17.41,7.9,7.9,0,0,0-2.63,1.25,6.16,6.16,0,0,0-1.81,2.14,6.71,6.71,0,0,0-.67,3.09,5.71,5.71,0,0,0,.64,2.84,5.3,5.3,0,0,0,1.68,1.81,8.59,8.59,0,0,0,2.39,1.1c.89.27,1.8.5,2.73.72.7.16,1.38.34,2,.52a7.57,7.57,0,0,1,1.7.73,3.55,3.55,0,0,1,1.17,1.14,3.21,3.21,0,0,1,.44,1.74,4.25,4.25,0,0,1-.5,2.15,3.8,3.8,0,0,1-1.36,1.34,6.31,6.31,0,0,1-2,.71,13.2,13.2,0,0,1-2.39.21,13.84,13.84,0,0,1-1.65-.11A16.61,16.61,0,0,1,422,361a15.18,15.18,0,0,1-1.67-.45,10.94,10.94,0,0,1-1.45-.58v2.63a6.29,6.29,0,0,0,1.13.49,15.3,15.3,0,0,0,1.61.44c.59.13,1.21.23,1.86.31a17.91,17.91,0,0,0,1.91.11,16,16,0,0,0,3.72-.41,8.9,8.9,0,0,0,2.95-1.27,6.12,6.12,0,0,0,2-2.18,6.68,6.68,0,0,0,.7-3.17,5.87,5.87,0,0,0-.65-2.94,5.45,5.45,0,0,0-1.71-1.86A8.82,8.82,0,0,0,430,351c-.9-.27-1.81-.52-2.74-.74-.69-.17-1.36-.34-2-.53a7.2,7.2,0,0,1-1.68-.72,3.56,3.56,0,0,1-1.16-1.12,3.25,3.25,0,0,1-.42-1.72A4.26,4.26,0,0,1,422.28,344.47Zm21.8,18.7-3.64,8.52h2.76l10.54-24.92H451l-5.42,13.12h-.11l-5.29-13.12h-2.78Zm15.22-13a2.06,2.06,0,0,1,.64-.81,3.15,3.15,0,0,1,1.12-.53,6,6,0,0,1,1.64-.2,10.05,10.05,0,0,1,2.21.28,16.36,16.36,0,0,1,2.13.66v-2.33a13.59,13.59,0,0,0-2.2-.67,12.65,12.65,0,0,0-2.62-.26,8.21,8.21,0,0,0-2.31.31,5.77,5.77,0,0,0-1.92,1,4.46,4.46,0,0,0-1.31,1.6,5.12,5.12,0,0,0-.48,2.29,4.19,4.19,0,0,0,.46,2.1,3.63,3.63,0,0,0,1.22,1.3,6.7,6.7,0,0,0,1.68.74c.62.17,1.23.33,1.83.46s.89.22,1.31.35a4.55,4.55,0,0,1,1.09.49,2.3,2.3,0,0,1,.76.76,2.14,2.14,0,0,1,.28,1.16,2.29,2.29,0,0,1-.31,1.21,2.47,2.47,0,0,1-.87.86,4.71,4.71,0,0,1-1.37.52,8.06,8.06,0,0,1-1.78.18,9.54,9.54,0,0,1-2.28-.25,15,15,0,0,1-2.1-.67V363a6.1,6.1,0,0,0,.69.3,7.86,7.86,0,0,0,1,.31,12.44,12.44,0,0,0,1.34.25,14.68,14.68,0,0,0,1.7.09,10.67,10.67,0,0,0,2.79-.34,6.69,6.69,0,0,0,2.19-1,4.61,4.61,0,0,0,1.41-1.64,4.78,4.78,0,0,0,.51-2.25,4.91,4.91,0,0,0-.45-2.26,3.9,3.9,0,0,0-1.17-1.39,5.55,5.55,0,0,0-1.59-.76c-.57-.17-1.18-.33-1.82-.47-.47-.09-.92-.2-1.36-.32a4.67,4.67,0,0,1-1.16-.45,2.17,2.17,0,0,1-.79-.71,2,2,0,0,1-.3-1.13A2.7,2.7,0,0,1,459.3,350.19Zm21.62,11.06a10.21,10.21,0,0,1-1.13.23,8.26,8.26,0,0,1-1.18.08,4,4,0,0,1-1.38-.2,2.5,2.5,0,0,1-.94-.56,2.33,2.33,0,0,1-.54-.86,3.29,3.29,0,0,1-.17-1.07v-9.76h5.09v-2.34h-5.09v-4.58h-2.77v4.58h-3.28v2.34h3.28v10.18a5.3,5.3,0,0,0,.32,1.92,3.63,3.63,0,0,0,1,1.47,4.31,4.31,0,0,0,1.64.94,7.6,7.6,0,0,0,2.32.32,12.07,12.07,0,0,0,1.76-.14,6,6,0,0,0,1.09-.26Zm9.37,0a5.23,5.23,0,0,1-2-1,4.71,4.71,0,0,1-1.35-1.81,6.68,6.68,0,0,1-.49-2.72h11.75c0-.35,0-.58,0-.68v-.36a12.23,12.23,0,0,0-.52-3.81,7.47,7.47,0,0,0-1.44-2.59,5.7,5.7,0,0,0-2.16-1.47,7.91,7.91,0,0,0-5.58.1,7,7,0,0,0-2.47,1.69,8.44,8.44,0,0,0-1.72,2.81,11.32,11.32,0,0,0-.64,4,10.73,10.73,0,0,0,.66,4,6.7,6.7,0,0,0,4.62,4.14,12.26,12.26,0,0,0,3.43.46,15.37,15.37,0,0,0,2.88-.25,8.87,8.87,0,0,0,2.26-.7v-2.27a14.44,14.44,0,0,1-2.27.62,12.89,12.89,0,0,1-2.51.22A9.36,9.36,0,0,1,490.29,361.25ZM493,349a3.57,3.57,0,0,1,1.25,1,4.53,4.53,0,0,1,.77,1.48,6.51,6.51,0,0,1,.26,1.85H486.6a5.62,5.62,0,0,1,.48-1.83,5.1,5.1,0,0,1,1-1.49,4.64,4.64,0,0,1,1.45-1,4.24,4.24,0,0,1,1.78-.37A3.93,3.93,0,0,1,493,349Zm23.82,2.58a8.15,8.15,0,0,1,2.19-2.16,5,5,0,0,1,2.72-.78,4.23,4.23,0,0,1,1.42.23,2.7,2.7,0,0,1,1.1.72,3.32,3.32,0,0,1,.69,1.26,5.94,5.94,0,0,1,.25,1.86V363.5H528V352.3a7,7,0,0,0-.55-3,5.05,5.05,0,0,0-1.4-1.82,4.93,4.93,0,0,0-1.85-.91,8.17,8.17,0,0,0-1.9-.24,6.28,6.28,0,0,0-3.39.89,9.07,9.07,0,0,0-2.59,2.45h-.07a5.7,5.7,0,0,0-1.94-2.44,5.24,5.24,0,0,0-3.15-.9,6.88,6.88,0,0,0-1.75.21,6.1,6.1,0,0,0-1.48.59,6.44,6.44,0,0,0-1.22.88,9.36,9.36,0,0,0-1,1.08h-.06l-.54-2.32h-2.15V363.5h2.78V351.61a8.3,8.3,0,0,1,2.19-2.16,4.89,4.89,0,0,1,2.7-.78,4.29,4.29,0,0,1,1.43.23,2.67,2.67,0,0,1,1.09.72,3.2,3.2,0,0,1,.7,1.26,6.27,6.27,0,0,1,.24,1.86V363.5h2.78Z"/></svg>