<svg id="Layer_1" data-name="Layer 1" xmlns="http://www.w3.org/2000/svg" xmlns:xlink="http://www.w3.org/1999/xlink" viewBox="0 0 551.77 551.77"><defs><style>.cls-1{fill:url(#linear-gradient);}.cls-2{fill:url(#linear-gradient-2);}.cls-3{fill:#fff;}.cls-4{fill:url(#linear-gradient-3);}.cls-5{fill:url(#linear-gradient-4);}</style><linearGradient id="linear-gradient" x1="-27.28" y1="486.71" x2="438.06" y2="369.99" gradientUnits="userSpaceOnUse"><stop offset="0.04" stop-color="#34c0fb"/><stop offset="0.37" stop-color="#1e4fcd"/><stop offset="0.6" stop-color="#8f50c4"/><stop offset="0.72" stop-color="#c351c0"/><stop offset="1" stop-color="#f6717b"/></linearGradient><linearGradient id="linear-gradient-2" x1="102.8" y1="324.96" x2="318.8" y2="218.09" xlink:href="#linear-gradient"/><linearGradient id="linear-gradient-3" x1="96.86" y1="312.96" x2="312.86" y2="206.1" xlink:href="#linear-gradient"/><linearGradient id="linear-gradient-4" x1="89.26" y1="297.59" x2="305.26" y2="190.72" xlink:href="#linear-gradient"/></defs><path class="cls-1" d="M27.91,441.16h40.6v4.33H23.12V379.71h44V384H27.91ZM27.35,410H63v4.23H27.35Zm69.53,35.89a23.5,23.5,0,0,1-9.44-1.74,13.5,13.5,0,0,1-6.11-4.93,13,13,0,0,1-2.11-7.33A13.6,13.6,0,0,1,81,425.05a12.62,12.62,0,0,1,5.78-5q4-1.94,10.81-1.93h18v3.67H97.64q-7.62,0-10.67,2.82a9.66,9.66,0,0,0,.52,14.56Q91.06,442,97.54,442A18.61,18.61,0,0,0,108,439.19a16.56,16.56,0,0,0,6.34-8.17l1.32,3.19a17.08,17.08,0,0,1-6.72,8.51Q104.21,445.87,96.88,445.86Zm17.67-.37V434.3l-.19-1.69V414.2q0-6.87-3.71-10.43T99.8,400.2a25.52,25.52,0,0,0-9.45,1.73,25.9,25.9,0,0,0-7.47,4.46L80.53,403a26.35,26.35,0,0,1,8.84-5.12,32.11,32.11,0,0,1,10.8-1.83q9.12,0,14,4.6t4.89,13.73v31.1Zm36.27.37a35.4,35.4,0,0,1-11.42-1.79,22.1,22.1,0,0,1-8.22-4.5l2.17-3.76a24.11,24.11,0,0,0,7.51,4.18A29,29,0,0,0,151,441.73q7.71,0,11.09-2.54a8,8,0,0,0,3.38-6.67,6.39,6.39,0,0,0-1.74-4.74,11.22,11.22,0,0,0-4.65-2.68,47.5,47.5,0,0,0-6.39-1.55c-2.32-.41-4.63-.86-6.95-1.37a28.25,28.25,0,0,1-6.39-2.16,11.79,11.79,0,0,1-4.65-3.9A11.33,11.33,0,0,1,133,409.5a11.67,11.67,0,0,1,2.07-6.77,14.33,14.33,0,0,1,6.2-4.84,25.54,25.54,0,0,1,10.33-1.83,33.8,33.8,0,0,1,9.26,1.32,23.29,23.29,0,0,1,7.56,3.47l-2.16,3.76a20.07,20.07,0,0,0-6.95-3.38,30,30,0,0,0-7.8-1q-7.14,0-10.48,2.62a8.08,8.08,0,0,0-3.33,6.58,6.92,6.92,0,0,0,1.73,4.94,11.34,11.34,0,0,0,4.66,2.82,42,42,0,0,0,6.39,1.59c2.32.41,4.63.86,7,1.37a29.76,29.76,0,0,1,6.39,2.11,11.79,11.79,0,0,1,4.65,3.76,10.74,10.74,0,0,1,1.74,6.44,11.57,11.57,0,0,1-2.21,7,14.27,14.27,0,0,1-6.53,4.7A29.2,29.2,0,0,1,150.82,445.86Zm30.45,18.23a17.5,17.5,0,0,1-6.35-1.13,13.72,13.72,0,0,1-5-3.28l2.35-3.57a12.44,12.44,0,0,0,4.09,2.91,12.85,12.85,0,0,0,5,.94,9.86,9.86,0,0,0,6-1.88c1.73-1.26,3.34-3.54,4.85-6.86l3.38-7.52.66-.84L217,396.44h4.79l-25.18,55.72a26.85,26.85,0,0,1-4.27,7.09,13.79,13.79,0,0,1-5,3.71A15.43,15.43,0,0,1,181.27,464.09Zm14.18-17.38-22.73-50.27h5l20.67,46.13Zm49.62-1.22H229.85V379.71h49.71v12.21H245.07Zm-1.13-36.18h31.58v12.21H243.94Zm67.65,36.93a29.64,29.64,0,0,1-14.32-3.38,25.74,25.74,0,0,1-9.87-9.26,26.74,26.74,0,0,1,0-26.87,25.25,25.25,0,0,1,9.87-9.21,32.28,32.28,0,0,1,28.6,0,25,25,0,0,1,9.87,9.16,25.71,25.71,0,0,1-9.87,36.18A29.74,29.74,0,0,1,311.59,446.24Zm0-12a12.92,12.92,0,0,0,6.58-1.69,12.09,12.09,0,0,0,4.61-4.84,17.46,17.46,0,0,0,0-15,12.22,12.22,0,0,0-4.61-4.79,13.65,13.65,0,0,0-13.16,0,12.6,12.6,0,0,0-4.65,4.79,17,17,0,0,0,0,15,12.46,12.46,0,0,0,4.65,4.84A12.94,12.94,0,0,0,311.59,434.21Zm37.49,11.28V394.93h14v14.28l-2-4.13a16.19,16.19,0,0,1,7.24-8.12,24.46,24.46,0,0,1,12.12-2.78v13.53l-1.69-.14c-.5,0-1-.05-1.6-.05a13.77,13.77,0,0,0-9.72,3.43q-3.72,3.44-3.72,10.67v23.87ZM454,394.18a22.87,22.87,0,0,1,10.66,2.4,17.24,17.24,0,0,1,7.34,7.33q2.67,4.93,2.67,12.64v28.94H460V418.8q0-6.1-2.53-9a9,9,0,0,0-7.14-2.91,11.34,11.34,0,0,0-5.74,1.45,9.84,9.84,0,0,0-3.94,4.37,17.09,17.09,0,0,0-1.41,7.43v25.37H424.54V418.8q0-6.1-2.49-9a8.83,8.83,0,0,0-7.09-2.91,11.34,11.34,0,0,0-5.74,1.45,9.84,9.84,0,0,0-3.94,4.37,17.09,17.09,0,0,0-1.41,7.43v25.37H389.21V394.93h14v13.81l-2.63-4a18.1,18.1,0,0,1,7.47-7.84,22.5,22.5,0,0,1,11-2.68,21.23,21.23,0,0,1,12.17,3.52q5.22,3.53,6.9,10.77L433,407.05a20.28,20.28,0,0,1,8.12-9.39A23.79,23.79,0,0,1,454,394.18Zm50.83,52.06a49.5,49.5,0,0,1-12.45-1.55,31.23,31.23,0,0,1-9.44-3.9l4.88-10.53a32.75,32.75,0,0,0,8.23,3.53,34.06,34.06,0,0,0,9.35,1.36q5.07,0,7.19-1.22a3.76,3.76,0,0,0,2.11-3.38,2.89,2.89,0,0,0-1.64-2.68,14.16,14.16,0,0,0-4.38-1.36c-1.81-.32-3.8-.63-6-.95s-4.34-.73-6.53-1.26a22,22,0,0,1-6-2.4,12.27,12.27,0,0,1-4.36-4.32,14.95,14.95,0,0,1,1.12-15.5,18.23,18.23,0,0,1,8-5.78,33.67,33.67,0,0,1,12.59-2.12A51.12,51.12,0,0,1,518,395.31,28.58,28.58,0,0,1,527,398.6L522.07,409a24.71,24.71,0,0,0-7.37-3,33.69,33.69,0,0,0-7.19-.8q-4.89,0-7.14,1.31a3.87,3.87,0,0,0-2.25,3.39,3,3,0,0,0,1.64,2.81,15,15,0,0,0,4.37,1.51q2.72.57,6,1a53.45,53.45,0,0,1,6.54,1.27,23.59,23.59,0,0,1,6,2.39,12.72,12.72,0,0,1,4.37,4.23,12.91,12.91,0,0,1,1.69,7,13.16,13.16,0,0,1-2.82,8.32,18.57,18.57,0,0,1-8.12,5.68A35.73,35.73,0,0,1,504.78,446.24Z"/><path class="cls-2" d="M352.9,327,240.39,361.59V131.09L352.9,89.93Z"/><polygon class="cls-3" points="331.22 152.38 258.77 178.11 258.77 182.19 331.22 156.44 331.22 152.38"/><polygon class="cls-3" points="331.22 175.35 258.77 201.08 258.77 205.17 331.22 179.42 331.22 175.35"/><polygon class="cls-3" points="331.22 198.33 258.77 224.06 258.77 228.14 331.22 202.39 331.22 198.33"/><polygon class="cls-3" points="331.22 221.3 258.77 247.03 258.77 251.11 331.22 225.37 331.22 221.3"/><polygon class="cls-3" points="331.22 244.27 258.77 270.01 258.77 274.09 331.22 248.34 331.22 244.27"/><polygon class="cls-3" points="331.22 267.25 258.77 292.98 258.77 297.06 331.22 271.31 331.22 267.25"/><polygon class="cls-3" points="331.22 290.22 258.77 315.95 258.77 320.04 331.22 294.29 331.22 290.22"/><path class="cls-4" d="M322.72,327,210.21,361.59V131.09L322.72,89.93Z"/><polygon class="cls-3" points="299.74 150.42 227.29 176.15 227.29 180.24 299.74 154.49 299.74 150.42"/><polygon class="cls-3" points="299.74 173.39 227.29 199.13 227.29 203.21 299.74 177.46 299.74 173.39"/><polygon class="cls-3" points="299.74 196.37 227.29 222.1 227.29 226.18 299.74 200.44 299.74 196.37"/><polygon class="cls-3" points="299.74 219.34 227.29 245.07 227.29 249.16 299.74 223.41 299.74 219.34"/><polygon class="cls-3" points="299.74 242.32 227.29 268.05 227.29 272.13 299.74 246.38 299.74 242.32"/><polygon class="cls-3" points="299.74 265.29 227.29 291.02 227.29 295.11 299.74 269.36 299.74 265.29"/><polygon class="cls-3" points="299.74 288.26 227.29 313.99 227.29 318.08 299.74 292.33 299.74 288.26"/><polygon class="cls-5" points="288.58 324.77 176.07 359.34 176.07 128.84 288.58 87.68 288.58 324.77"/><polygon class="cls-3" points="265.77 148.96 193.32 174.69 193.32 178.77 265.77 153.02 265.77 148.96"/><polygon class="cls-3" points="265.77 171.93 193.32 197.66 193.32 201.75 265.77 176 265.77 171.93"/><polygon class="cls-3" points="265.77 194.91 193.32 220.64 193.32 224.72 265.77 198.97 265.77 194.91"/><polygon class="cls-3" points="265.77 217.88 193.32 243.61 193.32 247.69 265.77 221.95 265.77 217.88"/><polygon class="cls-3" points="265.77 240.85 193.32 266.58 193.32 270.67 265.77 244.92 265.77 240.85"/><polygon class="cls-3" points="265.77 263.83 193.32 289.56 193.32 293.64 265.77 267.89 265.77 263.83"/><polygon class="cls-3" points="265.77 286.8 193.32 312.53 193.32 316.62 265.77 290.87 265.77 286.8"/></svg>