<svg id="Layer_1" data-name="Layer 1" xmlns="http://www.w3.org/2000/svg" xmlns:xlink="http://www.w3.org/1999/xlink" viewBox="0 0 551.77 551.77"><defs><style>.cls-1{fill:url(#linear-gradient);}.cls-2{fill:url(#linear-gradient-2);}.cls-3{fill:url(#linear-gradient-3);}</style><linearGradient id="linear-gradient" x1="136.69" y1="295.35" x2="562.12" y2="255.43" gradientUnits="userSpaceOnUse"><stop offset="0.04" stop-color="#34c0fb"/><stop offset="0.37" stop-color="#1e4fcd"/><stop offset="0.6" stop-color="#8f50c4"/><stop offset="0.72" stop-color="#c351c0"/><stop offset="1" stop-color="#f6717b"/></linearGradient><linearGradient id="linear-gradient-2" x1="178.54" y1="299.29" x2="471.59" y2="261.39" xlink:href="#linear-gradient"/><linearGradient id="linear-gradient-3" x1="-26.9" y1="311.73" x2="354.32" y2="246.55" xlink:href="#linear-gradient"/></defs><path class="cls-1" d="M262.21,221.41l-39,99.54h303.1V221.41Zm179.5,46.41-1.26,6.35H424l-1.61,8.17h19.26l-1.37,6.55H413L420,253.6H446.7l-1.37,6.56H426.84l-1.52,7.66Zm-28.59-7.66H394.68l-1.87,9.32h16.38L407.83,276H391.55L389,288.89h-8.22l7.06-35.29h26.67Zm66,0h-18.5l-1.51,7.66h16.38l-1.26,6.35H457.84l-1.62,8.17h19.26l-1.36,6.55H446.8l7.05-35.29h26.67Z"/><path class="cls-2" d="M501.75,230.82H290.14L267.2,311.53H501.75c1.28-8.6,8.31-15.46,17.31-17V247.81C511.67,246.52,503,239.12,501.75,230.82ZM407.83,276H391.55L389,288.89h-8.22l7.06-35.29h26.67l-1.37,6.56H394.68l-1.87,9.32h16.38Zm37.5-15.88H426.84l-1.52,7.66h16.39l-1.26,6.35H424l-1.61,8.17h19.26l-1.37,6.55H413L420,253.6H446.7Zm33.83,0h-18.5l-1.51,7.66h16.38l-1.26,6.35H457.84l-1.62,8.17h19.26l-1.36,6.55H446.8l7.05-35.29h26.67Z"/><path class="cls-3" d="M271.84,301.88c12.85,15.9,25.07,15.58,35,11.26,9.06-4,13.8-14.64,12.22-26.54-.21.11-.63.11-.63.32C312.6,301,298,303,286.48,299.88c-10.21-2.75-15.48-10.12-17.06-20.23a79.42,79.42,0,0,1-.84-11.27c-.11-15.27,0-30.44,0-46H286.8c.1,1.37.21,2.85.21,4.32V264a50.18,50.18,0,0,0,.63,7.9c1.48,9.9,7.58,13.79,17.48,11.16,8-2.11,13.38-9.48,13.91-20.33.53-11.58.42-23.17.53-34.76v-5.68h17.69a10.7,10.7,0,0,1,.42,2c0,22.64.53,45.29-.21,67.93-.94,26.76-23.7,43.08-50,36.87-8.74-2.11-16.75-5.58-23.07-12.22-1.89-2-2.21-3.47-.21-5.68,2.74-2.75,5-5.91,7.69-9.27ZM162.09,223.19h18.54v79.52H162.09V289.34c-5.69,8.22-13.8,13.37-22.86,13.37-16.95,0-30.75-18.21-30.75-40.65s13.8-40.66,30.75-40.66c9.06,0,17.17,5.17,22.86,13.38V223.19ZM144.5,286c10.11,0,18.22-10.74,18.22-24s-8.11-24-18.22-24-18.22,10.74-18.22,24,8.21,24,18.22,24Zm100.17-35.81h0l13.27-6.95c-.21-6.11-4.32-11.7-9.48-15s-11.38-4.63-17.59-5.27c-9.9-1-20.54-.21-28.65,5.38s-12.95,17.16-8.32,25.91c3.79,7.26,12.22,10.63,20.22,12.11s16.43,2,23.6,5.68c1.79.95,3.68,2.32,3.79,4.32s-1.27,3.58-2.63,4.85A22.35,22.35,0,0,1,202.75,269l-14.64,7.69c-3.06,1.69,8.32,15.8,9.79,17.06,10.85,9.48,27.18,11,40.55,6.53,9.38-3.16,18.23-10.11,20.12-19.8a20.53,20.53,0,0,0-4.84-17.38c-4.53-4.95-11.17-7.27-17.8-8.64s-13.28-1.79-19.7-3.79c-2.74-.84-5.9-2.73-5.79-5.69.1-2.63,3.05-4.31,5.58-5.15,5.37-1.79,11.27-2.53,16.75-1s10.42,5.9,11.9,11.27Zm-152-15c15.38,27.91-15.8,36-15.8,36C40.44,278.91,25.48,255,25.48,255,32.75,229.09,49,224.67,49,224.67c29.91-10.53,43.71,10.53,43.71,10.53ZM73.09,256.27h0c3.47-1.58,6.32-5.48,5.37-9.48a8.67,8.67,0,0,0-2.42-4C65,231.3,49.07,241.63,43,252.9c-.42.74,7.9,3.68,8.32,3.79,6.43,1.68,15.7,2.42,21.81-.42ZM25.58,262.8S22,291,48.23,300.29s46.87-7.68,53-18.22l-15-8.85S74.56,297.45,41,281.76c0,0-12.22-7.16-15.38-19Z"/></svg>