<svg id="Layer_1" data-name="Layer 1" xmlns="http://www.w3.org/2000/svg" xmlns:xlink="http://www.w3.org/1999/xlink" viewBox="0 0 551.77 551.77"><defs><style>.cls-1{fill:url(#linear-gradient);}</style><linearGradient id="linear-gradient" x1="-55.57" y1="401.77" x2="346.12" y2="274.44" gradientUnits="userSpaceOnUse"><stop offset="0.04" stop-color="#34c0fb"/><stop offset="0.37" stop-color="#1e4fcd"/><stop offset="0.6" stop-color="#8f50c4"/><stop offset="0.72" stop-color="#c351c0"/><stop offset="1" stop-color="#f6717b"/></linearGradient></defs><path class="cls-1" d="M528.65,369.67c0,37.4-30.3,65.61-70.48,65.61h-96c-27.34,0-79.23.32-129.41.63-49.82.3-96.87.59-121.5.59a94.88,94.88,0,0,1-82.54-48.23h4.69a90.69,90.69,0,0,0,77.85,44.13c50.12,0,197.15-1.22,250.91-1.22h96c36.66,0,66.38-24.85,66.38-61.51A66.35,66.35,0,0,0,474,305.27a111.83,111.83,0,0,0-129.82-97.85,112.58,112.58,0,0,0-220.7,44.41,89.48,89.48,0,0,0-81,30.69H37.2a94.69,94.69,0,0,1,74.06-35.71c2.34,0,4.73.11,7.31.34A111.49,111.49,0,0,1,117.51,232a116.74,116.74,0,0,1,229.76-29.23,112,112,0,0,1,14.9-1.06A116.67,116.67,0,0,1,477.7,302,70.24,70.24,0,0,1,528.65,369.67Zm-416.8,55.14,341,2,5,0-.05-.3c32.21-2.82,57.66-28.36,57.66-58.92,0-29.67-23-54.28-54.14-58.56a97.33,97.33,0,0,0-30.88-64.95,104.3,104.3,0,0,0-71.84-28.19A106.11,106.11,0,0,0,335,218.6C328.9,169.08,285,131,232.75,131c-56.8,0-103,44.56-103,99.32a94.77,94.77,0,0,0,6.13,33.57,82,82,0,0,0-80.21,18.66h6.11a78,78,0,0,1,81.72-11.43,91.74,91.74,0,0,1-9.65-40.8c0-52.58,44.29-95.21,98.91-95.21,52.34,0,95.07,39.15,98.57,88.67A102.4,102.4,0,0,1,358.64,220c53.76,0,97.4,41.31,98.78,92.73,30.26,2.59,54,26.15,54,54.87,0,30.12-26.09,54.56-58.47,55.07v0l-341.08-2a78,78,0,0,1-63.37-32.43h-5A82.25,82.25,0,0,0,111.85,424.81Zm2.2-10.23c1.83,0,138.48.87,238.26,1.5l98.68.63c29.33,0,52.3-21.11,52.3-48s-23.46-48.77-52.3-48.77h-.45c.08-1.54.12-3.08.12-4.6,0-48.89-41.25-88.67-92-88.67a94.14,94.14,0,0,0-32.51,5.72c-.47-48.73-41.73-88.23-92.37-88.23-50.94,0-92.38,40-92.38,89.07a86.1,86.1,0,0,0,15.46,49.34H162a82.36,82.36,0,0,1-16.45-49.34c0-46.92,39.52-85,88.28-85s88.27,38,88.27,85c0,1.79-.08,3.56-.19,5.32a90.39,90.39,0,0,1,36.8-7.78c48.53,0,87.86,37.87,87.86,84.57a82.56,82.56,0,0,1-.49,8.94c1.62-.15,3.26-.23,4.92-.23,26.62,0,48.2,20,48.2,44.66S477.61,412.6,451,412.6c-.91,0-334.06-2.13-336.94-2.13a67.49,67.49,0,0,1-50.12-22.2H58.56A71.64,71.64,0,0,0,114.05,414.58Zm0-139.45a67.27,67.27,0,0,1,30.7,7.39h8.17a71.51,71.51,0,0,0-77.75,0h8.15A67.36,67.36,0,0,1,114.05,275.13ZM303.17,403.38l146,1.15c24.94,0,42.35-14.57,42.35-35.43,0-21.81-19-39.55-42.35-39.55A45,45,0,0,0,437,331.23a75.88,75.88,0,0,0,1.28-13.86c0-43.43-36.64-78.76-81.67-78.76a83.2,83.2,0,0,0-48.19,15.15,73.42,73.42,0,0,0,3.17-21.34c0-41.93-35.37-76-78.84-76s-78.84,34.11-78.84,76a74.22,74.22,0,0,0,19.57,50.1h5.71A70.25,70.25,0,0,1,158,232.42c0-39.73,33.45-71.93,74.73-71.93s74.73,32.2,74.73,71.93a69.62,69.62,0,0,1-11.83,38.82,78.53,78.53,0,0,1,61-28.53c42.84,0,77.57,33.43,77.57,74.66a72,72,0,0,1-3,20.45,40.42,40.42,0,0,1,18-4.16c21.13,0,38.25,15.86,38.25,35.44s-17.12,31.32-38.25,31.32c-1.41,0-333.31-2.63-335.3-2.63a54.85,54.85,0,0,1-31-9.52H76.12a59,59,0,0,0,37.76,13.63C115.18,401.9,215.06,402.69,303.17,403.38ZM140.6,374.1a25,25,0,0,0,10.22-10,27.3,27.3,0,0,0,3.33-13.2q0-10.87-7.1-17.81t-21-6.93H121l8.82,5.62,20.87-26.41V292.84H98v15.54h39.47l-1.94-6.93-21,26.41v12.78h8q7.43,0,10.75,2.75a9.22,9.22,0,0,1,3.34,7.53,9.36,9.36,0,0,1-3.76,7.89c-2.52,1.91-6,2.86-10.33,2.86A35.34,35.34,0,0,1,101,354.14L94.24,369a38.62,38.62,0,0,0,13.13,6.63A54,54,0,0,0,123,377.93Q133.72,377.93,140.6,374.1Zm64.38.42a26.09,26.09,0,0,0,10.21-9.68A27.78,27.78,0,0,0,219,350.08a26.31,26.31,0,0,0-3.5-13.74,24.62,24.62,0,0,0-9.3-9.08A26.48,26.48,0,0,0,193.08,324a28.83,28.83,0,0,0-9.83,1.61,21.08,21.08,0,0,0-7.69,4.79,24.81,24.81,0,0,0-5.28,7.82l4.85,5a27.8,27.8,0,0,1-.59-5.27c0-1.75-.06-3.34-.06-4.78q0-12.9,5.7-19.48t15.49-6.57a30.1,30.1,0,0,1,7.42.9,18.22,18.22,0,0,1,6.67,3.28l6.45-14.22a28.26,28.26,0,0,0-9.46-4.3,45.15,45.15,0,0,0-11.51-1.44,37.68,37.68,0,0,0-20,5.27A35.6,35.6,0,0,0,161.74,312q-4.91,10-4.9,24.5,0,13.52,4.09,22.71a30.7,30.7,0,0,0,11.67,14,32.81,32.81,0,0,0,17.9,4.78A30.23,30.23,0,0,0,205,374.52Zm-22.54-12.66a11.6,11.6,0,0,1-4.52-4.43,13.54,13.54,0,0,1,.05-12.9,12.08,12.08,0,0,1,4.57-4.43,13.82,13.82,0,0,1,6.78-1.61,12.74,12.74,0,0,1,9.31,3.41,12.2,12.2,0,0,1,3.49,9.14,13.21,13.21,0,0,1-1.61,6.57A10.79,10.79,0,0,1,196,362a13.7,13.7,0,0,1-6.5,1.5A14.47,14.47,0,0,1,182.44,361.86Zm86.42,11q7.26-5.07,11.46-14.76t4.19-23.42q0-13.74-4.19-23.42t-11.46-14.76a29.58,29.58,0,0,0-33.18,0q-7.32,5.07-11.51,14.76T220,334.67q0,13.74,4.19,23.42t11.51,14.76a29.63,29.63,0,0,0,33.18,0Zm-24.2-14c-2.18-1.84-3.9-4.74-5.16-8.73a64.14,64.14,0,0,1,0-30.83q1.89-6,5.16-8.72a11.42,11.42,0,0,1,7.58-2.75,11.55,11.55,0,0,1,7.69,2.75q3.29,2.75,5.17,8.72a64.14,64.14,0,0,1,0,30.83c-1.25,4-3,6.89-5.17,8.73a11.6,11.6,0,0,1-7.69,2.75A11.47,11.47,0,0,1,244.66,358.81ZM23.15,376.49H37.38V339.6s.53-11.42,11.24-11.42S61.1,339.07,61.1,339.07v37.42H75.15V339.25c1.58-10.19,11.77-10.72,11.77-10.72v-14c-10.72-.88-18.8,8.26-18.8,8.26-14.93-14.58-30.74-5.27-30.74-5.27V292H23.15Zm38-37.42v37.42H75.15V339.25c.19-9.84-7-16.51-7-16.51C60.74,329.53,61.1,339.07,61.1,339.07Zm7-38.47a7.09,7.09,0,1,0,7.09,7.09A7.08,7.08,0,0,0,68.06,300.6Z"/></svg>