<svg id="Layer_1" data-name="Layer 1" xmlns="http://www.w3.org/2000/svg" xmlns:xlink="http://www.w3.org/1999/xlink" viewBox="0 0 674.17 551.77"><defs><style>.cls-1{fill:url(#linear-gradient);}</style><linearGradient id="linear-gradient" x1="-20.4" y1="366.67" x2="504.07" y2="209.03" gradientUnits="userSpaceOnUse"><stop offset="0.04" stop-color="#34c0fb"/><stop offset="0.37" stop-color="#1e4fcd"/><stop offset="0.6" stop-color="#8f50c4"/><stop offset="0.72" stop-color="#c351c0"/><stop offset="1" stop-color="#f6717b"/></linearGradient></defs><path class="cls-1" d="M105.86,342.9l-.07-.24-.05-.16c-15.33-3-23.56-7.81-27-10.3l-.12.08-.09.07c-4.3,3-7.5,6.9-8.6,12.09a19,19,0,0,0,2.88,14.83A18.18,18.18,0,0,0,92.5,366.5c4.38-1.27,8.24-3.1,10.88-7A18.54,18.54,0,0,0,105.86,342.9Zm31.37-5.72c-18.48,4-36.11,1.35-52-8.9C69,317.82,58.42,303,54.73,283.79c-.66-3.48-.77-7.07-1.4-10.56a1.33,1.33,0,0,0-.12-.37,2,2,0,0,0-3.43-.19,2.26,2.26,0,0,0-.49.71,7.6,7.6,0,0,0,0,1.5,70.84,70.84,0,0,0,4.93,23.81,61,61,0,0,0,14.93,22.79c2.6,2.46,5.27,4.85,8,7.34l.14.13.14.13.2.17.1.09c2.26,1.9,11.27,8.54,31.5,12h0c15,1.68,28.71-1.64,42.15-8.66C146.43,334.27,141.92,336.17,137.23,337.18Zm-32.52-20.65a73.33,73.33,0,0,1-18-10.33,71,71,0,0,1-19-23.05,127.2,127.2,0,0,1-5.41-12.9c-.72-1.86-1.85-2.85-3.83-2.55s-2.4,1.89-2.34,3.63a19.78,19.78,0,0,0,.15,2,69.79,69.79,0,0,0,11.38,30.78,65.06,65.06,0,0,0,7.67,9.24,74.08,74.08,0,0,0,31.33,3.89C106,317,105.35,316.79,104.71,316.53ZM172.84,311c-4.31,2.16-8.56,4.44-12.93,6.47a67.2,67.2,0,0,1-27.63,6.07,70.26,70.26,0,0,1-25.63-4.49,73.92,73.92,0,0,1-31.33-3.89c1,1,2,2,3.07,2.92a63.78,63.78,0,0,0,39.44,16.43,64.76,64.76,0,0,0,45-13.71c3.72-2.88,7-6.37,10.43-9.58Zm35.84,27.63a18.54,18.54,0,0,0-15.38-6.74h-.42c-6.89,14-13.68,20.71-17,23.39l.05.13,0,.11c1.82,4.94,4.71,9,9.43,11.46a19,19,0,0,0,15.07,1.08A18.2,18.2,0,0,0,212.6,351C212.51,346.39,211.75,342.18,208.68,338.63Zm-13.4-53.42c.27,5.27.93,10.12.68,14.91C195,319,187.85,335.33,173.8,348c-14.34,12.95-31.37,19.28-50.9,17.82-3.54-.26-7-1.1-10.56-1.41a1.29,1.29,0,0,0-.39,0,2,2,0,0,0-1.08,3.26c.18.23.31.52.56.65a7,7,0,0,0,1.45.38,71.09,71.09,0,0,0,24.28,1.45A60.76,60.76,0,0,0,163,361.72c3.06-1.86,6.06-3.82,9.19-5.83l.16-.1.16-.11.22-.14.11-.08c2.43-1.68,11.19-8.64,19.76-27.29h0s0,0,0,0h0C198.17,314.15,198.56,300,195.28,285.21Zm-27.74,40.92a73.4,73.4,0,0,1-14.68,14.72,70.94,70.94,0,0,1-27.2,12.29A125.75,125.75,0,0,1,111.8,355c-2,.21-3.23,1.05-3.46,3s1.19,2.81,2.89,3.21c.67.15,1.33.29,2,.38a69.66,69.66,0,0,0,32.69-2.95,64.58,64.58,0,0,0,10.91-5,74.06,74.06,0,0,0,11.93-29.23C168.37,325,168,325.57,167.54,326.13Zm19.29-55c-1.8-4.34-4.33-8.38-6.53-12.57-.1.13-.21.25-.32.37,1,4.72,2.06,9.43,2.87,14.17a67.35,67.35,0,0,1-1.34,28.26,70.57,70.57,0,0,1-11,23.57,73.92,73.92,0,0,1-11.93,29.23c1.22-.68,2.42-1.42,3.62-2.2a63.86,63.86,0,0,0,26.16-33.79A64.81,64.81,0,0,0,186.83,271.11Zm53.67-39.17c-4.19-1.8-8.34-2.84-12.84-1.52a18.54,18.54,0,0,0-12.48,11.24l-.1.23L215,242c9.93,12.06,13.22,21,14.29,25.13h.26c5.25.38,10.17-.56,14.33-3.87a19,19,0,0,0,7.2-13.27A18.18,18.18,0,0,0,240.5,231.94Zm-10.63,49.59c-.44-3.56-1-7.1-1.53-10.77h0s0-.08,0-.18a.63.63,0,0,1,0-.19c0-.08,0-.17,0-.26a.59.59,0,0,1,0-.13c-.53-2.91-3.27-13.76-16.72-29.26v0h0a66.82,66.82,0,0,0-17.38-12.94,80.47,80.47,0,0,0-20.65-7.18c4.91,1.93,9.6,3.33,13.86,5.54,16.79,8.69,28.73,21.91,34.49,39.95,5.87,18.39,4.62,36.52-4.78,53.71-1.69,3.11-3.9,5.95-5.63,9a1.49,1.49,0,0,0-.14.37,2.32,2.32,0,0,0,3.35,2.09,6.77,6.77,0,0,0,.94-1.17A70.86,70.86,0,0,0,226.9,308.6,60.85,60.85,0,0,0,229.87,281.53ZM220,283.86a74,74,0,0,0-21.7-22.93c.35.6.69,1.2,1,1.82a73.32,73.32,0,0,1,7.35,19.44,71,71,0,0,1,0,29.85,124.73,124.73,0,0,1-4,13.39c-.62,1.9-.38,3.38,1.34,4.41s3.05.07,4.11-1.32c.42-.54.82-1.09,1.18-1.66a69.87,69.87,0,0,0,10.8-31A65.06,65.06,0,0,0,220,283.86Zm.62-5.58a63.9,63.9,0,0,0-20-37.76,64.82,64.82,0,0,0-43.47-18.05c-4.7-.14-9.42.49-14.14.77.07.14.13.3.2.45,4.7,1.06,9.43,2,14.09,3.22a67.27,67.27,0,0,1,25.19,12.89,70.48,70.48,0,0,1,16.93,19.76,74,74,0,0,1,21.7,22.93C221,281.1,220.81,279.7,220.6,278.28ZM160.92,174.57a19,19,0,0,0-11-10.34,18.17,18.17,0,0,0-20.2,5.63c-2.81,3.6-4.88,7.34-4.74,12a18.55,18.55,0,0,0,7.69,14.93l.2.15.13.1c14.19-6.53,23.68-7.44,27.93-7.42l.05-.14,0-.11C162.71,184.43,163.05,179.43,160.92,174.57Zm58.27,45.61a6.55,6.55,0,0,0-.89-1.21,70.84,70.84,0,0,0-17.92-16.44A60.73,60.73,0,0,0,175,192.77c-3.55-.48-7.11-.86-10.8-1.27h0l-.18,0-.19,0-.26,0h-.14c-2.94-.23-14.13-.35-32.55,8.71h0c-13.12,7.38-22.34,18.1-29.13,31.65,3.12-4.25,5.66-8.43,8.88-12,12.68-14,28.5-22.2,47.41-23.18,19.29-1,36.5,4.83,50.73,18.29,2.58,2.43,4.76,5.28,7.31,7.75a1.21,1.21,0,0,0,.32.22,2.31,2.31,0,0,0,2.87-2.7Zm-4.35,5.65a19.45,19.45,0,0,0-1.31-1.57,69.77,69.77,0,0,0-27.22-18.33,64.51,64.51,0,0,0-11.62-3A74,74,0,0,0,147,218.07c.67-.18,1.34-.36,2-.52a72.92,72.92,0,0,1,20.67-2.16A71,71,0,0,1,198.55,223a125.91,125.91,0,0,1,11.92,7.3c1.68,1.09,3.17,1.23,4.6-.17S215.92,227.21,214.84,225.83Zm-45.39-24.92a63.82,63.82,0,0,0-41.6,9.71,64.81,64.81,0,0,0-28.52,37.44c-1.34,4.51-1.93,9.25-2.86,13.87l.49-.07c2.22-4.28,4.34-8.62,6.7-12.81A67.36,67.36,0,0,1,122.53,228,70.66,70.66,0,0,1,146,216.63a74,74,0,0,1,27.69-15.15Q171.6,201.14,169.45,200.91ZM69.91,230.26l-.12-.08-.1-.06c-4.38-2.92-9.13-4.52-14.38-3.69a19,19,0,0,0-12.8,8,18.17,18.17,0,0,0,.3,21c2.76,3.63,5.86,6.59,10.43,7.65a18.53,18.53,0,0,0,16.4-3.63l.2-.16.13-.09C67.26,243.78,68.81,234.37,69.91,230.26Zm45.18-48.37a2.06,2.06,0,0,0-.83-.2,6.74,6.74,0,0,0-1.4.55A71,71,0,0,0,92.4,195.38a60.82,60.82,0,0,0-15.91,22.11c-1.37,3.31-2.64,6.66-4,10.12h0a1.26,1.26,0,0,0-.07.17,1.34,1.34,0,0,1-.07.18q0,.1-.09.24s0,.09,0,.13c-1,2.79-3.94,13.58.14,33.7h0c3.8,14.57,11.82,26.21,23.19,36.23-3.32-4.1-6.71-7.62-9.33-11.64C75.9,270.82,72,253.43,75.89,234.9c3.94-18.91,14-34.06,30.6-44.4,3-1.87,6.32-3.26,9.35-5.09a1.86,1.86,0,0,0,.31-.26A2,2,0,0,0,115.09,181.89Zm7.76,6.32c-1-1.82-2.63-1.57-4.23-.88a18.32,18.32,0,0,0-1.85.87,69.7,69.7,0,0,0-24.66,21.66,64,64,0,0,0-5.87,10.47A73.91,73.91,0,0,0,93.84,251c0-.7,0-1.39,0-2.08A73.48,73.48,0,0,1,97,228.34a71.05,71.05,0,0,1,14.72-26,124.83,124.83,0,0,1,10.1-9.67C123.32,191.36,123.83,190,122.85,188.21ZM112.76,300.76a67.2,67.2,0,0,1-15.58-23.62,70.46,70.46,0,0,1-5-25.54A74,74,0,0,1,84.58,221c-.58,1.27-1.12,2.58-1.62,3.92a63.78,63.78,0,0,0-1.2,42.7A64.8,64.8,0,0,0,110.7,304.7c4,2.44,8.45,4.21,12.68,6.3,0-.17,0-.33.05-.49C119.87,307.27,116.21,304.11,112.76,300.76Zm203-75v9.55h23.49v85.56H368.5V235.29h23.34v-9.55Zm132.39,69.4c.09,1.81.14,3.41.14,4.81q0,15.62-13.1,15.61-14,0-14-27.6h37.07q0-39.3-30.45-39.3a30.14,30.14,0,0,0-23.91,10.87q-9.33,10.88-9.33,27.88,0,35.05,35.11,35,27.1,0,28.71-24.31ZM421.75,273q.83-18.19,7.52-18.19,7.38,0,7.39,24.53h-15.2Zm115.79,38.91a9.11,9.11,0,0,1-3.9,1.46c-2.83,0-4.25-2.19-4.25-6.55V264.2q0-15.6-29-15.61-30.51,0-30.52,16.73a42.38,42.38,0,0,0,.49,6.13L483,273.89a26.9,26.9,0,0,1-2-8.64q0-10.46,12.41-10.45,10.72,0,10.73,10.8,0,8.22-18.68,14.07-20.36,6.34-20.34,22,0,20.63,22.23,20.63,11.89,0,18.25-8.51Q508.69,322,521.8,322A50,50,0,0,0,540,318.34Zm-37.62-11.39q0,13.79-7.94,13.79-5.44,0-5.44-13.94,0-10.86,7.88-15.46a21.64,21.64,0,0,0,5.5-4.53Zm130.09-52q-12.75,0-21.25,11.5-5.37-11.35-16.38-11.35-13.17,0-22.16,12.05V248.66a184.85,184.85,0,0,1-25.43,1.75v70.44h25.43V281.14q0-19.8,9.48-19.79c2.42,0,3.62,2.62,3.62,7.87v51.63h25.44V281.07q0-19.87,9.33-19.87c2.7,0,4,2.31,4,6.91v52.74h25.43V266.36Q647.56,248.6,630,248.59Zm-329.9,15.89c-.08-4.75-2.39-8.76-6.31-12.34L282,264.29c-3.92-4-7.78-8-11.81-12.14-4.11,4.14-6.24,8.56-6.25,13.88q0,19,0,38.07a18.18,18.18,0,0,0,.55,4.27c2.07,8.51,10.4,14.75,18.63,14,9.29-.82,16.94-8.11,17.11-17C300.42,291.74,300.33,278.11,300.11,264.48Zm-.15-38.3c-1.4-7.83-7.51-13.44-15.58-14.69-7-1.08-14.57,2.72-18.23,9.12a17.87,17.87,0,0,0,2,20.76c4.4,4.83,9.35,9.17,14,13.66,4.5-4.38,9.23-8.72,13.64-13.37C299.86,237.35,301,231.91,300,226.18Z"/></svg>