<svg id="Layer_1" data-name="Layer 1" xmlns="http://www.w3.org/2000/svg" xmlns:xlink="http://www.w3.org/1999/xlink" viewBox="0 0 551.77 551.77"><defs><style>.cls-1{fill:url(#linear-gradient);}.cls-2{fill:url(#linear-gradient-2);}.cls-3{fill:url(#linear-gradient-3);}.cls-4{fill:url(#linear-gradient-4);}.cls-5{fill:url(#linear-gradient-5);}.cls-6{fill:url(#linear-gradient-6);}.cls-7{fill:url(#linear-gradient-7);}.cls-8{fill:url(#linear-gradient-8);}.cls-9{fill:url(#linear-gradient-9);}.cls-10{fill:url(#linear-gradient-10);}.cls-11{fill:url(#linear-gradient-11);}.cls-12{fill:url(#linear-gradient-12);}.cls-13{fill:url(#linear-gradient-13);}.cls-14{fill:url(#linear-gradient-14);}.cls-15{fill:url(#linear-gradient-15);}.cls-16{fill:url(#linear-gradient-16);}.cls-17{fill:url(#linear-gradient-17);}.cls-18{fill:url(#linear-gradient-18);}.cls-19{fill:url(#linear-gradient-19);}</style><linearGradient id="linear-gradient" x1="-71.36" y1="438.5" x2="266.29" y2="373.7" gradientUnits="userSpaceOnUse"><stop offset="0.04" stop-color="#34c0fb"/><stop offset="0.37" stop-color="#1e4fcd"/><stop offset="0.6" stop-color="#8f50c4"/><stop offset="0.72" stop-color="#c351c0"/><stop offset="1" stop-color="#f6717b"/></linearGradient><linearGradient id="linear-gradient-2" x1="-69.92" y1="446" x2="267.73" y2="381.2" xlink:href="#linear-gradient"/><linearGradient id="linear-gradient-3" x1="-67.91" y1="456.46" x2="269.73" y2="391.66" xlink:href="#linear-gradient"/><linearGradient id="linear-gradient-4" x1="-66.75" y1="462.48" x2="270.89" y2="397.68" xlink:href="#linear-gradient"/><linearGradient id="linear-gradient-5" x1="-64.51" y1="474.19" x2="273.13" y2="409.39" xlink:href="#linear-gradient"/><linearGradient id="linear-gradient-6" x1="-62.87" y1="482.74" x2="274.78" y2="417.94" xlink:href="#linear-gradient"/><linearGradient id="linear-gradient-7" x1="-60.98" y1="492.54" x2="276.66" y2="427.74" xlink:href="#linear-gradient"/><linearGradient id="linear-gradient-8" x1="-59.14" y1="502.14" x2="278.5" y2="437.34" xlink:href="#linear-gradient"/><linearGradient id="linear-gradient-9" x1="-57.42" y1="511.13" x2="280.23" y2="446.33" xlink:href="#linear-gradient"/><linearGradient id="linear-gradient-10" x1="-55.74" y1="519.85" x2="281.9" y2="455.05" xlink:href="#linear-gradient"/><linearGradient id="linear-gradient-11" x1="-54.67" y1="525.45" x2="282.97" y2="460.65" xlink:href="#linear-gradient"/><linearGradient id="linear-gradient-12" x1="60.45" y1="325.3" x2="301.46" y2="255.57" xlink:href="#linear-gradient"/><linearGradient id="linear-gradient-13" x1="70.71" y1="360.76" x2="311.72" y2="291.03" xlink:href="#linear-gradient"/><linearGradient id="linear-gradient-14" x1="77.26" y1="383.41" x2="318.27" y2="313.68" xlink:href="#linear-gradient"/><linearGradient id="linear-gradient-15" x1="22.83" y1="195.26" x2="263.84" y2="125.54" xlink:href="#linear-gradient"/><linearGradient id="linear-gradient-16" x1="65.24" y1="341.86" x2="306.25" y2="272.14" xlink:href="#linear-gradient"/><linearGradient id="linear-gradient-17" x1="64.66" y1="339.85" x2="305.67" y2="270.13" xlink:href="#linear-gradient"/><linearGradient id="linear-gradient-18" x1="44.27" y1="269.36" x2="285.28" y2="199.64" xlink:href="#linear-gradient"/><linearGradient id="linear-gradient-19" x1="60.7" y1="326.16" x2="301.71" y2="256.43" xlink:href="#linear-gradient"/></defs><path class="cls-1" d="M20.48,395H35.62v33.16H55.89v11.74H20.48Z"/><path class="cls-2" d="M97.39,428.51v11.42H60.06V395H96.55v11.41H74.94v5.26h19v10.91h-19v5.9Z"/><path class="cls-3" d="M133.82,432.1H116.76l-3,7.83H98.35L118,395h14.89l19.62,44.9H136.83Zm-4.17-10.9-4.36-11.29-4.37,11.29Z"/><path class="cls-4" d="M154.92,395h22.13a30.61,30.61,0,0,1,13.24,2.72,20.77,20.77,0,0,1,8.92,7.8,24,24,0,0,1,0,23.86,20.75,20.75,0,0,1-8.92,7.79,30.47,30.47,0,0,1-13.24,2.73H154.92Zm21.49,33.09a10.81,10.81,0,0,0,7.79-2.79c1.94-1.86,2.92-4.47,2.92-7.85s-1-6-2.92-7.86a10.81,10.81,0,0,0-7.79-2.79h-6.35v21.29Z"/><path class="cls-5" d="M225.92,422.29l-6,6.28v11.36H209.57V395h10.32v21l19.89-21h11.54l-18.6,20,19.69,24.89H240.29Z"/><path class="cls-6" d="M264.57,437.68a22.39,22.39,0,0,1-8.79-8.3,23.86,23.86,0,0,1,0-23.8,22.34,22.34,0,0,1,8.79-8.31,27.81,27.81,0,0,1,25.17,0,22.89,22.89,0,0,1,0,40.41,27.73,27.73,0,0,1-25.17,0ZM284.35,430a13.14,13.14,0,0,0,5-5.1,16,16,0,0,0,0-14.88,13.14,13.14,0,0,0-5-5.1,15,15,0,0,0-14.36,0,13.14,13.14,0,0,0-5,5.1,16,16,0,0,0,0,14.88,13.14,13.14,0,0,0,5,5.1,15.07,15.07,0,0,0,14.36,0Z"/><path class="cls-7" d="M350.74,395v44.9h-8.53l-22.39-27.26v27.26H309.56V395h8.59l22.33,27.26V395Z"/><path class="cls-8" d="M402.56,395v44.9H394l-22.38-27.26v27.26H361.38V395H370l22.32,27.26V395Z"/><path class="cls-9" d="M448,431.59v8.34H413.21V395h33.93v8.34h-23.6v9.75h20.84v8.08H423.54v10.39Z"/><path class="cls-10" d="M472.6,422.29l-6,6.28v11.36H456.25V395h10.32v21l19.89-21H498l-18.6,20,19.69,24.89H487Z"/><path class="cls-11" d="M509.93,403.49H495.57V395h39.12v8.46H520.32v36.44H509.93Z"/><path class="cls-12" d="M306.9,332l-11.67-8.06c-1.59-1.1-2.27-2.36-3.43-.82a104.83,104.83,0,0,1-11.94,13l-1,.86c-.35.3-.7.6-1.06.89l-1,.83-1.1.86-1,.78-1.13.83-1.05.74c-.38.27-.77.53-1.16.79l-1.07.71c-.39.26-.79.5-1.18.75l-1.1.67c-.4.24-.8.48-1.21.71l-1.11.63-1.24.67c-.38.21-.76.4-1.14.6L262,348l-1.15.55-1.29.59-1.16.51-1.32.55-1.15.46-1.57.59-1.08.39-1.62.54-1.06.34-1.7.5-1,.28c-.62.17-1.25.32-1.87.48l-.86.21c-.82.19-1.64.36-2.46.53l-.29.06-1.71.3-1.16.2c-.58.09-1.15.17-1.73.24l-1.15.16-1.76.18-1.13.11-1.77.12-1.13.07-1.77,0L228,356c-.59,0-1.19,0-1.78,0h-1.13l-1.78-.09c-.37,0-.74,0-1.12-.05l-1.8-.15c-.36,0-.73-.05-1.09-.09-.62-.06-1.24-.15-1.86-.22l-1-.13c-.66-.09-1.31-.2-2-.31l-.9-.14-2.16-.42-.7-.14c-.79-.17-1.57-.36-2.35-.55l-.49-.12c-.83-.21-1.65-.44-2.46-.67l-.36-.1c-.77-.23-1.54-.47-2.31-.73l-.46-.14c-.61-.2-1.2-.42-1.8-.64l-.95-.34c-.49-.18-1-.38-1.46-.57l-1.25-.5-1.4-.62c-.42-.19-.85-.36-1.27-.56s-.95-.46-1.42-.69l-1.2-.58-1.43-.76-1.13-.6c-.48-.27-1-.55-1.42-.83s-.73-.41-1.09-.63-.94-.59-1.4-.88L184,343.1c-.46-.3-.91-.62-1.37-.93l-1-.7c-.45-.32-.89-.66-1.34-1s-.67-.49-1-.74-.88-.69-1.32-1l-1-.77c-.45-.37-.88-.75-1.32-1.13s-.6-.5-.88-.76c-.47-.41-.92-.84-1.38-1.26l-.76-.71c-.5-.48-1-1-1.49-1.48l-.58-.58c-.54-.55-1.06-1.12-1.58-1.69l-.41-.44c-.54-.6-1.06-1.21-1.58-1.82-.1-.13-.22-.25-.33-.38-.47-.57-.93-1.15-1.39-1.73l-.43-.54c-.37-.47-.71-.94-1.06-1.42l-.69-.92c-.29-.4-.56-.81-.84-1.22s-.55-.78-.81-1.18-.52-.81-.77-1.21-.54-.83-.8-1.25l-.75-1.28-.72-1.23c-.25-.44-.48-.89-.72-1.34s-.44-.81-.65-1.22-.46-.92-.68-1.38-.41-.82-.6-1.23-.42-.93-.63-1.4-.38-.83-.56-1.25-.37-.94-.56-1.4l-.52-1.29c-.18-.47-.34-.95-.52-1.43s-.32-.87-.46-1.31-.32-1-.47-1.45-.29-.87-.42-1.31-.28-1-.42-1.49-.25-.87-.36-1.31-.26-1.05-.38-1.58-.21-.83-.3-1.25-.24-1.14-.35-1.71c-.07-.38-.16-.76-.23-1.15-.11-.61-.2-1.22-.3-1.83-.05-.35-.12-.7-.17-1-.08-.58-.15-1.16-.22-1.74,0-.39-.1-.77-.14-1.16s-.09-1-.13-1.45-.1-1-.13-1.45,0-.77-.06-1.16c0-.59-.07-1.17-.09-1.75,0-.35,0-.71,0-1.06,0-.62,0-1.24,0-1.86,0-.39,0-.77,0-1.16,0-.58,0-1.17,0-1.75s0-.86.08-1.28.05-1.09.1-1.62.08-.91.13-1.36.09-1,.14-1.54.13-.91.19-1.36.12-1,.2-1.52.15-.91.23-1.37.16-1,.26-1.49.19-.91.28-1.36.2-1,.32-1.48.21-.89.32-1.33.24-1,.37-1.49.25-.87.38-1.31.27-1,.43-1.48.28-.88.43-1.32.3-1,.47-1.45.33-.89.49-1.33.34-.93.52-1.39.37-.91.56-1.37.35-.89.54-1.33l.6-1.31c.21-.45.4-.9.61-1.34s.35-.69.52-1c.26-.53.51-1.06.79-1.58l.33-.61c.35-.65.7-1.3,1.07-2l.26-.43c.4-.7.8-1.39,1.23-2.07.11-.17.22-.33.32-.5.42-.66.83-1.31,1.27-1.95.15-.23.31-.44.46-.67.4-.58.8-1.15,1.21-1.71.2-.29.42-.56.63-.84.37-.49.74-1,1.13-1.48.24-.31.48-.6.73-.9.37-.45.73-.91,1.1-1.35l.81-.92,1.11-1.26c.28-.31.57-.6.85-.9s.76-.82,1.15-1.21.59-.58.89-.87.78-.79,1.19-1.16.61-.57.92-.85l1.22-1.11,1-.81c.42-.36.84-.72,1.26-1.06l1-.79c.43-.34.85-.68,1.29-1l1.07-.78,1.28-.92c.37-.27.76-.52,1.15-.78s.84-.58,1.27-.85.76-.48,1.14-.71l1.34-.83.88-.5c.55-.32,1.09-.64,1.65-.94l.43-.22c.71-.39,1.43-.77,2.15-1.13l.34-.16c.76-.37,1.52-.74,2.3-1.09l.46-.2q1.1-.5,2.22-1l.66-.25c.68-.28,1.36-.55,2-.8l.87-.3c.62-.22,1.25-.45,1.88-.65.33-.11.66-.2,1-.3.59-.19,1.19-.38,1.79-.55l1.06-.28,1.75-.47,1.09-.25,1.74-.39,1.11-.21c.58-.11,1.16-.23,1.75-.33l1.11-.17,1.76-.26,1.13-.13,1.75-.2,1.15-.09,1.75-.13,1.16,0c.58,0,1.16-.06,1.74-.07h1.18c.58,0,1.16,0,1.74,0h.3c.84,0,1.67.05,2.51.09l.88.06,1.93.13,1,.11,1.75.19,1.11.15,1.69.25,1.13.19.61.11,0,.21,1.3.25,1.25.27,1.37.31,1.25.32L248,201l1.24.35,1.34.41c.41.12.81.26,1.22.39l1.33.45,1.21.44,1.3.49,1.2.48,1.29.54,1.19.52,1.26.58,1.18.57a78.89,78.89,0,0,1,13.09,8.09,3.63,3.63,0,0,0,5-.5l9.08-10.89a3.4,3.4,0,0,0-.48-4.87,99.84,99.84,0,0,0-15.51-9.9l-.11-.07c-.34-.18-.7-.34-1-.51-.51-.26-1-.51-1.52-.75l-1.62-.76-1.53-.69-1.65-.7-1.55-.63-1.67-.64-1.57-.58-1.7-.59-1.58-.52-.82-.25a2.53,2.53,0,0,1,.13-.22c-.53-.17-1.08-.32-1.61-.48l-1.58-.44c-.59-.17-1.19-.32-1.78-.47l-1.58-.38c-.61-.15-1.22-.28-1.82-.41l-1-.23-.5-.09-2.12-.39-1.43-.25c-.73-.12-1.46-.22-2.19-.32l-1.37-.19c-.76-.1-1.53-.17-2.3-.25l-1.27-.13c-.85-.07-1.69-.13-2.54-.18l-1.05-.07c-1.09-.06-2.19-.09-3.29-.12h-.36c-1.19,0-2.39,0-3.58,0l-.41,0q-1.59,0-3.18.12l-1.23.09c-.78.05-1.56.1-2.34.18-.52,0-1,.11-1.55.16-.67.08-1.34.14-2,.23l-1.75.25-1.77.27c-.63.1-1.26.22-1.89.33l-1.6.31c-.67.13-1.34.28-2,.43-.49.11-1,.21-1.46.33-.7.16-1.4.34-2.09.53l-1.33.35c-.73.2-1.45.41-2.17.63l-1.22.37c-.75.23-1.49.48-2.23.73l-1.11.38c-.77.27-1.53.56-2.29.85l-1,.38-1.29.5-1.07.46-.86.37c-.82.36-1.64.72-2.44,1.1l-.71.34c-.85.4-1.7.81-2.53,1.24l-.54.28c-.89.46-1.76.93-2.63,1.41l-.35.2c-.93.52-1.85,1-2.76,1.6h0q-1.09.64-2.43,1.5l0,0-.05,0a100,100,0,0,0-37.6,44.4l0,0c-.23.54-.44,1.08-.66,1.62s-.48,1.14-.71,1.72-.45,1.21-.67,1.82-.41,1.09-.6,1.64-.42,1.25-.62,1.87-.36,1.09-.53,1.63-.37,1.27-.55,1.9-.32,1.09-.47,1.64-.32,1.28-.47,1.92-.29,1.1-.41,1.65-.27,1.29-.41,1.93-.24,1.11-.35,1.68-.22,1.29-.33,1.93-.2,1.13-.29,1.7-.18,1.3-.26,2-.16,1.12-.23,1.69-.13,1.33-.19,2-.12,1.11-.16,1.66-.09,1.4-.13,2.1c0,.53-.07,1.06-.09,1.58,0,.77,0,1.53,0,2.29,0,.46,0,.92,0,1.37v0c0,.81,0,1.63,0,2.44,0,.42,0,.84,0,1.25,0,.77.08,1.54.12,2.31,0,.46,0,.93.07,1.39,0,.61.11,1.22.16,1.84s.1,1.23.17,1.84c.05.46.11.92.17,1.38.09.76.18,1.52.29,2.29.06.41.13.82.2,1.23.13.81.25,1.61.4,2.42v0c.08.45.19.9.27,1.35.15.74.29,1.49.46,2.24.11.51.24,1,.37,1.54.16.68.31,1.36.49,2s.3,1.07.45,1.61.35,1.3.54,1.94.34,1.08.52,1.62.39,1.26.6,1.89.39,1.07.58,1.61.44,1.24.67,1.85.43,1.06.64,1.59.48,1.22.74,1.83.46,1,.69,1.55.53,1.21.81,1.81.5,1,.74,1.53.58,1.19.88,1.77.54,1,.8,1.51.62,1.16.94,1.74.59,1,.88,1.51.65,1.12,1,1.67.66,1,1,1.57.63,1,1,1.51v0a100.09,100.09,0,0,0,44.82,37.12l.06,0h0c1,.4,1.83.75,2.62,1l0,0h0c1,.38,2,.74,3,1.09l.38.14c.94.32,1.89.63,2.84.92l.58.18c.9.28,1.8.53,2.71.78l.75.21c.87.23,1.73.44,2.6.65l.91.22,1.13.26,1.37.27,1,.2c.8.15,1.61.3,2.41.43l1.16.18c.78.12,1.55.23,2.33.33l1.26.15,2.24.24,1.38.11c.72.06,1.43.11,2.15.15l1.49.07,2,.08h3.55c.59,0,1.19,0,1.79-.05s1.18,0,1.77-.06,1.33-.08,2-.13l1.55-.1,2.34-.24,1.23-.13c1-.12,2.1-.28,3.15-.44l.4-.05c1.18-.19,2.36-.4,3.54-.62h.06l.29-.07c1.08-.21,2.15-.44,3.22-.69l1-.25c.83-.2,1.65-.4,2.47-.63l1.23-.35c.74-.21,1.49-.42,2.22-.65.44-.13.88-.28,1.32-.43l2.1-.69,1.36-.5c.67-.25,1.35-.49,2-.76l.48-.18,1-.41L267,369l1.48-.66,1.68-.77,1.48-.72,1.62-.81,1.47-.78,1.58-.86c.49-.27,1-.55,1.44-.83s1-.6,1.56-.92.94-.58,1.41-.87l1.51-1,1.39-.93c.49-.34,1-.67,1.48-1l1.35-1c.49-.35,1-.71,1.44-1.07l1.33-1c.47-.36.93-.73,1.4-1.11l1.3-1.08,1.35-1.15,1.26-1.13c.29-.26.59-.51.87-.78l.09-.09a100.6,100.6,0,0,0,12.29-13.69A3.4,3.4,0,0,0,306.9,332Z"/><path class="cls-13" d="M353.62,349.35a1.54,1.54,0,0,0-2.18-.34,16.75,16.75,0,0,1-6,1.62,86.36,86.36,0,0,1-11,.06,2.59,2.59,0,0,1-.84-.11c-1.92-.84-4.05-.89-6-1.71-2.7-1.13-5.41-2.11-7.67-4a42.64,42.64,0,0,1-5.39-5.36,25.58,25.58,0,0,1-2.65-4.24,13.88,13.88,0,0,1-1.66-2.91c-.66-2.6-1.58-5.13-2.34-7.69-.92-3.13-1-6.32-1.67-9.45a57.27,57.27,0,0,1-.61-8.17c-.26-4.8-.9-9.6-.79-14.42q.11-3.73.22-7.48v0c.12-3.92.26-7.83.37-11.74.06-2,.11-3.91.14-5.86a16.18,16.18,0,0,1,3.86-10.39,17.71,17.71,0,0,1,5.43-4.16,20,20,0,0,1,9.95-2.17,30.16,30.16,0,0,1,3.4.36,15.06,15.06,0,0,1,6.06,2.28c.36.21.69.44,1,.67a17.16,17.16,0,0,1,1.62,1.31,19.65,19.65,0,0,1,10.12-13.14,42.32,42.32,0,0,0-4-3l-.44-.31a29.42,29.42,0,0,0-7.34-3.45l-.46-.15a30.47,30.47,0,0,0-6.54-1.33,39.22,39.22,0,0,0-14.6,1.3,37.2,37.2,0,0,0-7.29,3.07,14.62,14.62,0,0,0-1.32.77v-16H289.69v45.55q0,6,0,12c0,1.45,0,2.91,0,4.36q0,6.83.05,13.64c0,.95.06,1.89.07,2.83,0,4.53.68,9,.76,13.55a27.5,27.5,0,0,0,.76,6c.58,2.38.79,4.82,1.61,7.18.66,1.88,1.27,3.78,1.94,5.66.42,1.15,1.19,2,1.68,3.06a14.94,14.94,0,0,0,2.49,3.88,28.68,28.68,0,0,0,4.33,4.27c1.16.82,2.28,1.76,3.48,2.5a44.42,44.42,0,0,0,5.53,2.74,16.47,16.47,0,0,0,3.64,1.24c2.15.39,4.23,1,6.43,1.27s4.47.87,6.77.78a28.67,28.67,0,0,1,4.54.09,63.35,63.35,0,0,0,18.34-.65,13.66,13.66,0,0,0,4.72-1.18C355.77,351,354.46,350.48,353.62,349.35Z"/><path class="cls-14" d="M424.54,313.75c-.16-11.9.74-23.83-1-35.68a1.9,1.9,0,0,0-.15-.59,52.52,52.52,0,0,1-2.12-5.09,25.33,25.33,0,0,0-4.16-6.12c-2.42-3-5.64-4.92-9-6.6A22.29,22.29,0,0,0,397.37,257c-3.17.09-6.35-.13-9.37,1.07a45.32,45.32,0,0,0-6.79,3.4,26.92,26.92,0,0,0-8.66,9.25c-1.26,2-1.72,4.38-2.62,6.56-.71,1.73-.21,3.67-.93,5.4a10.39,10.39,0,0,0-.51,4.21q0,17.7,0,35.42a6.89,6.89,0,0,1-.11,1.58c-1.09,4.27-1.76,8.46,1.05,12.43a36.78,36.78,0,0,0,4,4.35.67.67,0,0,0,1.07,0,20.05,20.05,0,0,0,2.87-4.42,19.76,19.76,0,0,0,2-4.43c.45-1.92,1.35-3.78,1.48-5.71.14-2.1.41-4.19.68-6.29.76-5.95.35-11.9.26-17.86-.11-7.56-1.46-15.18,1.57-22.54a7.94,7.94,0,0,1,1.66-2.74c1.38-1.32,2.59-2.92,4.51-3.64,1.7-.62,3.27-1.6,5.19-1.56a21.21,21.21,0,0,1,6.95.81,14.86,14.86,0,0,1,6.55,4.68,12.45,12.45,0,0,1,2.29,6,47.4,47.4,0,0,1,.66,9.38c-.18,6,.12,12,.31,18a80.62,80.62,0,0,1-.73,12.81,36.57,36.57,0,0,1-1,6.46,31,31,0,0,1-1.44,4.46c-1.48,3-2.84,6.2-5.56,8.47a44.68,44.68,0,0,1-4.18,3.22,23.37,23.37,0,0,1-5.62,2.68,18.57,18.57,0,0,1-4.3,1.25c-1.84.12-3.68.09-5.51.16a17.14,17.14,0,0,1-10.25-3,26.71,26.71,0,0,1-3.78-3.11,23,23,0,0,1-2.94-3.77,53.35,53.35,0,0,1-2.82-5.29,4.51,4.51,0,0,1-.86-2.34,6.78,6.78,0,0,1-.84-2,25.59,25.59,0,0,0-1.23-5c-.85-3-1-6.16-1.73-9.19-1-3.93-.76-8-1-12a168.44,168.44,0,0,1,.28-18.25c.12-2.24.2-4.49.22-6.73a117.59,117.59,0,0,0-1.15-17.67,27.43,27.43,0,0,0-1.47-6.1c-.53-1.31-1.08-2.66-1.71-4a32,32,0,0,0-5.29-7.53,20,20,0,0,0-1.69-1.63h0a19.65,19.65,0,0,0-10.12,13.14,16.49,16.49,0,0,1,3.83,5.22,13.06,13.06,0,0,1,1.6,5.92,5.12,5.12,0,0,0,.11,2.06c.12,1.62.32,3.24.34,4.86,0,.22,0,.44,0,.66.05,3.95.16,7.89.08,11.84a276.19,276.19,0,0,0,.46,29.62,15.45,15.45,0,0,0,.62,4c.88,2.47.94,5.09,1.75,7.57.61,1.85,1.09,3.78,1.62,5.67.17.61.76,1.12.86,1.72a12.54,12.54,0,0,0,2.39,4.95,26.16,26.16,0,0,0,5.47,6c.89.68,1.55,1.72,2.53,2.19,1.39.67,2.61,1.63,4,2.35a30.67,30.67,0,0,0,5.92,2.53c1.86.54,3.71,1.54,5.79,1.23a1.38,1.38,0,0,1,.72.12,14.13,14.13,0,0,0,5,.83c2.94,0,5.88-.07,8.82.05A40,40,0,0,0,400,353.1a26.19,26.19,0,0,0,6-2,38.41,38.41,0,0,0,4.18-2.25,42.42,42.42,0,0,0,4.51-3.27,28,28,0,0,0,5.3-6.7c1.48-2.56,2.12-5.54,3.15-8.32a10.31,10.31,0,0,0,.53-3.47,10.74,10.74,0,0,1,.22-1.68,51.77,51.77,0,0,0,.64-11.46A.71.71,0,0,0,424.54,313.75Zm-.22.26h0Z"/><circle class="cls-15" cx="240.02" cy="132.43" r="37.9"/><path class="cls-16" d="M289.75,285.11h-.06V268.73q0,6,.05,12C289.74,282.2,289.74,283.66,289.75,285.11Z"/><path class="cls-17" d="M289.74,280.75l-.05,0v-12Q289.71,274.75,289.74,280.75Z"/><circle class="cls-18" cx="327.47" cy="187.43" r="26.47"/><circle class="cls-19" cx="396.59" cy="228.98" r="19.6"/></svg>