<?xml version="1.0" encoding="UTF-8"?>
<svg id="Layer_2" data-name="Layer 2" xmlns="http://www.w3.org/2000/svg" viewBox="0 0 1783.8 492.46" width="6" height="6">
  <defs>
    <style>
      .cls-1 {
        fill: #2f4c78;
      }

      .cls-1, .cls-2 {
        stroke-width: 0px;
      }

      .cls-2 {
        fill: #d81e3b;
      }
    </style>
  </defs>
  <g id="Layer_1-2" data-name="Layer 1">
    <g>
      <polygon class="cls-2" points="0 492.46 235.53 0 363.99 0 597.74 492.46 310.17 492.46 337.23 393.88 406.82 394.33 298.87 167.72 140.96 492.46 0 492.46"/>
      <polygon class="cls-1" points="296.87 221.33 220.85 352.99 372.88 352.99 296.87 221.33"/>
      <polygon class="cls-1" points="613.64 479.38 487.56 212.92 487.56 1.19 1137.03 1.19 1137.03 491.27 999.05 491.27 999.05 108.25 877.12 108.25 877.12 491.27 744.49 491.27 744.49 103.49 620.78 103.49 613.64 479.38"/>
      <path class="cls-1" d="M1463.47,491.25h-291.74l34.51-101.09h207.83c-8.43,10.5-13.42,23.35-13.42,37.2,0,32.49,27.26,59.37,62.81,63.89Z"/>
      <path class="cls-1" d="M1486.02,368.74c-.14-1.18-.14-2.4-.14-3.63,0-29.33,27.07-53.16,60.5-53.16,4.52,0,8.9.42,13.14,1.27l-4.71,155.57c-.71,6.31-1.99,5.71-4.66,5.93l-55.51.38c-2.97,0-11.7.38-14.57,0-29.29-3.72-53.43-25.5-53.43-52.24s29.96-49.84,59.25-53.56c.05-.05.09-.05.19-.05"/>
      <path class="cls-1" d="M1463.7,363.42c-.09,0-.14,0-.24.05-17.52,2.21-33.1,9.93-44.31,21.05v-87.72l-199.83-.61c-54.76,7.16-57.11-49.96-57.11-49.96V89.19c-2.4-73.74,45.2-88,45.2-88h352.1l-41.62,102.32-210.57-1.22v95.16l171.3,1.22c96.34-4.76,80.89,95.16,80.89,95.16v3.11c-7.11-2.02-14.69-3.11-22.55-3.11-40.59,0-73.5,28.91-73.5,64.6,0,1.46.05,2.92.19,4.38"/>
      <path class="cls-1" d="M1541.03,491.25c10.15,0,18.77-6.69,21.56-15.97.03-.11.13-.18.24-.18h126.99c8.76,0,34,2.43,41.23-.96,19.75-9.26,34.48-25.39,36.43-44.88,2.03-20.29-31.9-42.03-53.13-49.8-5.37-1.98-11.21-3.34-17.28-3.91,1.84-2.17,4.83-3.33,6.48-5.55,1.36-1.84,19.26-13.16,15.43-36.94-4.67-29.01-27.07-53.21-60.5-53.21-25.96,0-58.46,25.58-67.03,45.81-.07.16-.25.2-.38.1-7.62-6.11-16.97-10.49-27.31-12.51-.12-.02-.21-.13-.21-.25v-15.72c0-.18.18-.31.35-.26,9.92,2.85,18.93,7.54,26.56,13.63.13.11.32.06.39-.1,10.41-24.56,37.29-42.02,68.85-42.02,40.59,0,73.5,28.86,73.5,64.6,0,10.69-2.97,20.76-8.19,29.66-1.66,2.74-3.49,5.39-5.58,7.92-.13.16-.04.39.17.41,7.22.69,14.17,2.36,20.57,4.71,25.71,9.42,43.65,30.7,43.65,55.42s-17.94,46.05-43.65,55.47c-9.13,3.39-19.21,5.23-29.85,5.23"/>
    </g>
  </g>
</svg>