<?xml version="1.0" encoding="UTF-8"?>
<svg id="Layer_2" data-name="Layer 2" xmlns="http://www.w3.org/2000/svg" xmlns:xlink="http://www.w3.org/1999/xlink" viewBox="0 0 250.21 383.4">
  <defs>
    <style>
      .cls-1 {
        fill: none;
      }

      .cls-1, .cls-2, .cls-3, .cls-4 {
        stroke-width: 0px;
      }

      .cls-2 {
        fill: url(#linear-gradient-2);
        opacity: .91;
      }

      .cls-3 {
        fill: url(#linear-gradient);
        opacity: .84;
      }

      .cls-4 {
        fill: #fed689;
      }
    </style>
    <linearGradient id="linear-gradient" x1="45.29" y1="191.7" x2="202.97" y2="191.7" gradientUnits="userSpaceOnUse">
      <stop offset="0" stop-color="#f8c890"/>
      <stop offset="1" stop-color="#fbaa48"/>
    </linearGradient>
    <linearGradient id="linear-gradient-2" x1="-131.24" y1="182.27" x2="205.72" y2="197.39" gradientUnits="userSpaceOnUse">
      <stop offset="0" stop-color="#978f87"/>
      <stop offset="1" stop-color="#5f3d1e"/>
    </linearGradient>
  </defs>
  <g id="Layer_1-2" data-name="Layer 1">
    <g>
      <path class="cls-4" d="M92.53,57.24v326.16l157.68-55.08V0L92.53,57.24ZM217.16,271.46c-4.15,1.55-8.3,3.11-12.46,4.66-29.2,10.93-58.41,21.85-87.62,32.78-2.78,1.04-3.31-7.33-1-8.19,4.15-1.56,8.31-3.11,12.46-4.66,29.21-10.93,58.41-21.86,87.62-32.78,2.78-1.05,3.31,7.33,1,8.19ZM217.16,237.73c-4.15,1.55-8.3,3.1-12.46,4.65-29.2,10.93-58.41,21.86-87.62,32.79-2.78,1.04-3.31-7.34-1-8.2,4.15-1.55,8.31-3.11,12.46-4.66,29.21-10.93,58.41-21.85,87.62-32.78,2.78-1.04,3.31,7.33,1,8.2ZM217.16,203.99c-4.15,1.55-8.3,3.1-12.46,4.66-29.2,10.92-58.41,21.85-87.62,32.78-2.78,1.04-3.31-7.33-1-8.2,4.15-1.55,8.31-3.1,12.46-4.66,29.21-10.92,58.41-21.85,87.62-32.78,2.78-1.04,3.31,7.33,1,8.2ZM217.16,170.25c-4.15,1.56-8.3,3.11-12.46,4.66-29.2,10.93-58.41,21.86-87.62,32.78-2.78,1.04-3.31-7.33-1-8.19,4.15-1.56,8.31-3.11,12.46-4.66,29.21-10.93,58.41-21.86,87.62-32.78,2.78-1.04,3.31,7.33,1,8.19ZM217.16,136.52c-4.15,1.55-8.3,3.1-12.46,4.66-29.2,10.92-58.41,21.85-87.62,32.78-2.78,1.04-3.31-7.33-1-8.2,4.15-1.55,8.31-3.11,12.46-4.66,29.21-10.93,58.41-21.85,87.62-32.78,2.78-1.04,3.31,7.33,1,8.2ZM217.16,102.78c-4.15,1.55-8.3,3.11-12.46,4.66-29.2,10.93-58.41,21.85-87.62,32.78-2.78,1.04-3.31-7.33-1-8.2,4.15-1.55,8.31-3.1,12.46-4.65,29.21-10.93,58.41-21.86,87.62-32.79,2.78-1.04,3.31,7.34,1,8.2ZM217.16,69.65c-4.15,1.55-8.3,3.1-12.46,4.66-29.2,10.92-58.41,21.85-87.62,32.78-2.78,1.04-3.31-7.33-1-8.2,4.15-1.55,8.31-3.11,12.46-4.66,29.21-10.93,58.41-21.85,87.62-32.78,2.78-1.04,3.31,7.33,1,8.2Z"/>
      <path class="cls-3" d="M45.29,57.24v326.16l157.68-55.08V0L45.29,57.24ZM169.92,271.46c-4.15,1.55-8.3,3.11-12.46,4.66-29.2,10.93-58.41,21.85-87.62,32.78-2.78,1.04-3.31-7.33-1-8.19,4.15-1.56,8.31-3.11,12.46-4.66,29.21-10.93,58.41-21.86,87.62-32.78,2.78-1.05,3.31,7.33,1,8.19ZM169.92,237.73c-4.15,1.55-8.3,3.1-12.46,4.65-29.2,10.93-58.41,21.86-87.62,32.79-2.78,1.04-3.31-7.34-1-8.2,4.15-1.55,8.31-3.11,12.46-4.66,29.21-10.93,58.41-21.85,87.62-32.78,2.78-1.04,3.31,7.33,1,8.2ZM169.92,203.99c-4.15,1.55-8.3,3.1-12.46,4.66-29.2,10.92-58.41,21.85-87.62,32.78-2.78,1.04-3.31-7.33-1-8.2,4.15-1.55,8.31-3.1,12.46-4.66,29.21-10.92,58.41-21.85,87.62-32.78,2.78-1.04,3.31,7.33,1,8.2ZM169.92,170.25c-4.15,1.56-8.3,3.11-12.46,4.66-29.2,10.93-58.41,21.86-87.62,32.78-2.78,1.04-3.31-7.33-1-8.19,4.15-1.56,8.31-3.11,12.46-4.66,29.21-10.93,58.41-21.86,87.62-32.78,2.78-1.04,3.31,7.33,1,8.19ZM169.92,136.52c-4.15,1.55-8.3,3.1-12.46,4.66-29.2,10.92-58.41,21.85-87.62,32.78-2.78,1.04-3.31-7.33-1-8.2,4.15-1.55,8.31-3.11,12.46-4.66,29.21-10.93,58.41-21.85,87.62-32.78,2.78-1.04,3.31,7.33,1,8.2ZM169.92,102.78c-4.15,1.55-8.3,3.11-12.46,4.66-29.2,10.93-58.41,21.85-87.62,32.78-2.78,1.04-3.31-7.33-1-8.2,4.15-1.55,8.31-3.1,12.46-4.65,29.21-10.93,58.41-21.86,87.62-32.79,2.78-1.04,3.31,7.34,1,8.2ZM169.92,69.65c-4.15,1.55-8.3,3.1-12.46,4.66-29.2,10.92-58.41,21.85-87.62,32.78-2.78,1.04-3.31-7.33-1-8.2,4.15-1.55,8.31-3.11,12.46-4.66,29.21-10.93,58.41-21.85,87.62-32.78,2.78-1.04,3.31,7.33,1,8.2Z"/>
      <path class="cls-2" d="M0,57.24v326.16l157.68-55.08V0L0,57.24ZM124.63,271.46c-4.15,1.55-8.3,3.11-12.46,4.66-29.2,10.93-58.41,21.85-87.62,32.78-2.78,1.04-3.31-7.33-1-8.19,4.15-1.56,8.31-3.11,12.46-4.66,29.21-10.93,58.41-21.86,87.62-32.78,2.78-1.05,3.31,7.33,1,8.19ZM124.63,237.73c-4.15,1.55-8.3,3.1-12.46,4.65-29.2,10.93-58.41,21.86-87.62,32.79-2.78,1.04-3.31-7.34-1-8.2,4.15-1.55,8.31-3.11,12.46-4.66,29.21-10.93,58.41-21.85,87.62-32.78,2.78-1.04,3.31,7.33,1,8.2ZM124.63,203.99c-4.15,1.55-8.3,3.1-12.46,4.66-29.2,10.92-58.41,21.85-87.62,32.78-2.78,1.04-3.31-7.33-1-8.2,4.15-1.55,8.31-3.1,12.46-4.66,29.21-10.92,58.41-21.85,87.62-32.78,2.78-1.04,3.31,7.33,1,8.2ZM124.63,170.25c-4.15,1.56-8.3,3.11-12.46,4.66-29.2,10.93-58.41,21.86-87.62,32.78-2.78,1.04-3.31-7.33-1-8.19,4.15-1.56,8.31-3.11,12.46-4.66,29.21-10.93,58.41-21.86,87.62-32.78,2.78-1.04,3.31,7.33,1,8.19ZM124.63,136.52c-4.15,1.55-8.3,3.1-12.46,4.66-29.2,10.92-58.41,21.85-87.62,32.78-2.78,1.04-3.31-7.33-1-8.2,4.15-1.55,8.31-3.11,12.46-4.66,29.21-10.93,58.41-21.85,87.62-32.78,2.78-1.04,3.31,7.33,1,8.2ZM124.63,102.78c-4.15,1.55-8.3,3.11-12.46,4.66-29.2,10.93-58.41,21.85-87.62,32.78-2.78,1.04-3.31-7.33-1-8.2,4.15-1.55,8.31-3.1,12.46-4.65,29.21-10.93,58.41-21.86,87.62-32.79,2.78-1.04,3.31,7.34,1,8.2ZM124.63,69.65c-4.15,1.55-8.3,3.1-12.46,4.66-29.2,10.92-58.41,21.85-87.62,32.78-2.78,1.04-3.31-7.33-1-8.2,4.15-1.55,8.31-3.11,12.46-4.66,29.21-10.93,58.41-21.85,87.62-32.78,2.78-1.04,3.31,7.33,1,8.2Z"/>
      <line class="cls-1" x1="24.05" y1="102.99" x2="124.13" y2="65.55"/>
      <line class="cls-1" x1="24.05" y1="136.12" x2="124.13" y2="98.68"/>
      <line class="cls-1" x1="24.05" y1="237.33" x2="124.13" y2="199.89"/>
      <line class="cls-1" x1="24.05" y1="271.07" x2="124.13" y2="233.63"/>
      <line class="cls-1" x1="24.05" y1="304.8" x2="124.13" y2="267.36"/>
    </g>
  </g>
</svg>