<svg id="Layer_1" data-name="Layer 1" xmlns="http://www.w3.org/2000/svg" viewBox="0 0 1596.37 1711.36"><defs><style>.cls-1{fill:#fbad18;}</style></defs><path d="M1618.49,428.27s-290.64-443.7-920.7-221.82c0,0-341.63,93.14-494.74,638.9,0,0,315.06,503.65,1082.65,341.65,0,0,656.71-170.82,332.79-758.73ZM1205.86,872c-128.69,59.89-323.92,44.37-459.25,8.91-8.87-2.24-184.13-64.34-175.23-79.86,128.68-237.4,463.67-454.83,696.62-213,24.38,22.18,42.13,53.22,51,84.3,20,84.24-40,166.38-113.14,199.63Z" transform="translate(-201.82 -144.32)"/><path class="cls-1" d="M205.29,1009.49s-75.42,594.58,477,789.83,987.23-161.93,1115.89-383.82l-315-186.34s-246.27,510.27-953.95,179.73c0,0-257.37-150.86-323.92-399.4Z" transform="translate(-201.82 -144.32)"/></svg>