<?xml version="1.0" encoding="UTF-8"?>
<svg id="Layer_2" data-name="Layer 2" xmlns="http://www.w3.org/2000/svg" viewBox="0 0 1780.76 1131.6">
  <defs>
    <style>
      .cls-1 {
        fill: #020202;
      }

      .cls-1, .cls-2, .cls-3, .cls-4, .cls-5 {
        stroke-width: 0px;
      }

      .cls-2 {
        fill: #fcb936;
      }

      .cls-3 {
        fill: #139748;
      }

      .cls-4 {
        fill: #de273a;
      }

      .cls-5 {
        fill: #0c73ba;
      }
    </style>
  </defs>
  <g id="Layer_1-2" data-name="Layer 1">
    <g>
      <path class="cls-2" d="M1601.26,657.82c-28.58-202.05-201.83-353.18-406.99-353.18-16.5,0-33.77,1.23-52.46,3.75-21.88-84.64-70.96-161.15-139.22-216.6C929.72,32.6,837.8,0,743.75,0c-226.81,0-411.34,184.53-411.34,411.34,0,17.28,1.22,34.84,3.73,53.23-9.09-.8-17.52-1.19-25.74-1.19-105.49,0-199.65,49.19-260.92,125.78h18.6c58.62-68.12,145.4-111.32,242.32-111.32,14.61,0,28.88,1.32,42.97,3.22-4.03-22.68-6.5-45.89-6.5-69.73,0-219.19,177.69-396.88,396.88-396.88,189.37,0,347.49,132.74,387.09,310.17,20.7-3.33,41.78-5.53,63.42-5.53,203.37,0,370.76,153.05,393.9,350.2,102.2,25.02,178.13,116.97,178.13,226.88,0,129.14-104.7,216.67-233.84,216.67h-338.19c-189.37,0-707.33,4.29-883.86,4.29-116.49,0-218.39-62.33-274.26-155.44h-16.54c57.45,101.33,166.23,169.9,290.8,169.9,86.76,0,252.51-1.02,427.99-2.09,176.78-1.08,359.57-2.2,455.87-2.2h338.19c141.55,0,248.3-99.36,248.3-231.13,0-111.24-73.31-207.87-179.5-238.36Z"/>
      <path class="cls-3" d="M312.48,1090.41l1201.44,6.95,17.57.1-.2-1.04c113.47-9.94,203.12-99.91,203.12-207.59s-81.13-191.2-190.71-206.27c-5.52-86.87-43.85-167.71-108.77-228.81-68.06-64.06-157.95-99.33-253.1-99.33-27.77,0-55.76,3.21-83.44,9.57-21.3-174.44-176.11-308.69-360.01-308.69-200.11,0-362.9,156.94-362.9,349.85,0,40.55,7.26,80.19,21.61,118.26-27.4-8.43-55.74-12.69-84.61-12.69-76.49,0-146.11,29.84-197.96,78.42h21.55c47.78-39.92,109.28-63.97,176.41-63.97,39.7,0,77.34,8.57,111.43,23.69-21.56-43.61-33.98-92.22-33.98-143.72,0-185.23,156-335.39,348.44-335.39s334.89,137.92,347.23,312.37c30.6-8.45,62.8-13.25,96.22-13.25,189.38,0,343.14,145.51,347.99,326.68,106.62,9.1,190.13,92.11,190.13,193.27,0,106.11-91.9,192.2-205.96,194.01v.06s-1201.51-6.95-1201.51-6.95c-91.9,0-173.23-45.06-223.26-114.25h-17.53c52.07,77.56,140.56,128.71,240.79,128.71Z"/>
      <path class="cls-5" d="M320.2,1054.37c6.46,0,487.85,3.06,839.35,5.3,221.25,1.41,346.48,2.2,347.61,2.2,103.33,0,184.27-74.35,184.27-169.26s-82.66-171.79-184.27-171.79c-.52,0-1.05,0-1.57,0,.29-5.44.44-10.86.44-16.22,0-172.24-145.32-312.36-323.95-312.36-39.54,0-77.97,6.77-114.54,20.15-1.66-171.66-147-310.82-325.42-310.82s-325.43,140.76-325.43,313.78c0,62.88,19.06,122.76,54.47,173.8h17.92c-36.42-49-57.93-108.96-57.93-173.8,0-165.31,139.23-299.32,310.97-299.32s310.97,134.01,310.97,299.32c0,6.3-.27,12.54-.67,18.74,39.45-17.55,83.34-27.41,129.65-27.41,170.93,0,309.49,133.38,309.49,297.9,0,10.64-.6,21.14-1.73,31.49,5.7-.53,11.48-.81,17.33-.81,93.78,0,169.81,70.44,169.81,157.33s-76.03,154.8-169.81,154.8c-3.18,0-1176.8-7.5-1186.95-7.5-69.99,0-132.94-30.17-176.55-78.21h-18.93c46.41,56.54,116.8,92.67,195.48,92.67Z"/>
      <path class="cls-5" d="M320.2,563.15c38.96,0,75.69,9.43,108.15,26.02h28.79c-40.42-26.1-87.78-40.48-136.94-40.48s-97.46,14.91-136.96,40.48h28.71c32.49-16.6,69.26-26.02,108.25-26.02Z"/>
      <path class="cls-4" d="M986.45,1014.93c274.75,2.17,512.02,4.04,514.35,4.04,87.84,0,149.19-51.32,149.19-124.82s-66.93-139.29-149.19-139.29c-14.52,0-29,2.01-42.87,5.89,2.99-16.12,4.5-32.45,4.5-48.8,0-153-129.06-277.47-287.7-277.47-62.07,0-121.07,18.92-169.75,53.38,7.36-24.26,11.14-49.55,11.14-75.19,0-147.7-124.58-267.86-277.72-267.86s-277.73,120.16-277.73,267.86c0,66,25,128.26,68.93,176.49h20.11c-46.1-45.63-74.58-107.81-74.58-176.49,0-139.95,117.87-253.4,263.27-253.4s263.26,113.45,263.26,253.4c0,50.39-15.34,97.3-41.69,136.76,50.03-61.17,127.6-100.5,214.76-100.5,150.91,0,273.24,117.75,273.24,263.01,0,24.98-3.7,49.13-10.46,72.02,18.87-9.33,40.4-14.65,63.29-14.65,74.41,0,134.73,55.89,134.73,124.83s-60.32,110.36-134.73,110.36c-4.97,0-1174.17-9.27-1181.18-9.27-40.45,0-78.01-12.39-109.11-33.54h-23.9c36.14,29.96,82.51,48,133.01,48,4.59,0,356.42,2.78,666.83,5.23Z"/>
    </g>
    <g>
      <path class="cls-1" d="M351.61,925.26c-18.43,0-36.75-2.73-54.94-8.2-18.19-5.48-33.59-13.25-46.23-23.36l23.89-52.21c10.09,8.16,21.84,14.6,35.23,19.38,13.39,4.78,26.9,7.14,40.54,7.14,15.42,0,27.53-3.35,36.39-10.09,8.83-6.73,13.25-16,13.25-27.8s-3.91-20.05-11.75-26.52c-7.82-6.44-20.44-9.68-37.88-9.68h-28.04v-45.05l73.88-93.04,6.83,24.42h-139.05v-54.72h185.64v44.2l-73.5,93.04-31.08-19.81h17.81c32.6,0,57.23,8.16,73.88,24.42,16.67,16.29,25.02,37.21,25.02,62.73,0,16.58-3.93,32.07-11.75,46.52-7.84,14.45-19.83,26.18-36,35.16-16.17,8.98-36.87,13.46-62.13,13.46Z"/>
      <path class="cls-1" d="M589.54,925.26c-24.25,0-45.27-5.6-63.07-16.84-17.81-11.22-31.51-27.63-41.11-49.25-9.6-21.6-14.4-48.26-14.4-79.99,0-33.95,5.74-62.73,17.25-86.31,11.49-23.57,27.41-41.53,47.73-53.88,20.34-12.35,43.77-18.53,70.29-18.53,14.16,0,27.68,1.69,40.56,5.07,12.88,3.35,23.98,8.42,33.32,15.15l-22.73,50.09c-7.31-5.62-15.15-9.48-23.48-11.58-8.35-2.1-17.06-3.16-26.16-3.16-22.99,0-41.16,7.72-54.55,23.16-13.39,15.44-20.07,38.32-20.07,68.62,0,5.04.05,10.66.19,16.84.12,6.18.8,12.35,2.08,18.53l-17.06-17.69c4.8-10.95,11-20.15,18.58-27.58,7.58-7.43,16.6-13.05,27.1-16.84,10.47-3.79,22.03-5.69,34.65-5.69,17.18,0,32.6,3.79,46.23,11.39,13.63,7.58,24.56,18.24,32.77,31.99,8.2,13.75,12.33,29.87,12.33,48.4,0,19.93-4.49,37.25-13.46,52-8.95,14.74-20.97,26.11-35.98,34.09-15.03,8.01-32.02,11.99-50.98,11.99ZM586.14,874.32c8.59,0,16.24-1.74,22.92-5.26,6.68-3.5,11.94-8.64,15.73-15.37,3.79-6.73,5.67-14.45,5.67-23.14,0-13.49-4.1-24.23-12.31-32.21-8.2-8.01-19.13-11.99-32.77-11.99-9.1,0-17.06,1.88-23.89,5.67-6.8,3.79-12.18,9-16.09,15.59-3.91,6.59-5.86,14.24-5.86,22.95s1.88,15.92,5.67,22.51c3.79,6.61,9.1,11.8,15.92,15.59,6.8,3.79,15.15,5.67,25,5.67Z"/>
      <path class="cls-1" d="M807.03,925.26c-21.72,0-41.16-5.96-58.34-17.88-17.18-11.92-30.69-29.27-40.54-52-9.84-22.73-14.79-50.24-14.79-82.52s4.95-59.77,14.79-82.5c9.84-22.75,23.36-40.08,40.54-52,17.18-11.94,36.63-17.9,58.34-17.9s41.5,5.96,58.54,17.9c17.06,11.92,30.52,29.24,40.37,52,9.84,22.73,14.77,50.24,14.77,82.5s-4.92,59.79-14.77,82.52c-9.84,22.73-23.31,40.08-40.37,52-17.03,11.92-36.55,17.88-58.54,17.88ZM807.03,867.59c10.35,0,19.4-3.23,27.1-9.68,7.7-6.47,13.78-16.7,18.19-30.74,4.42-14.02,6.64-32.14,6.64-54.31s-2.22-40.27-6.64-54.29c-4.42-14.04-10.5-24.27-18.19-30.74-7.7-6.47-16.75-9.68-27.1-9.68s-19.01,3.21-26.71,9.68-13.75,16.7-18.17,30.74c-4.44,14.02-6.64,32.14-6.64,54.29s2.2,40.29,6.64,54.31c4.42,14.04,10.47,24.27,18.17,30.74,7.7,6.44,16.6,9.68,26.71,9.68Z"/>
    </g>
    <g>
      <path class="cls-2" d="M0,622.54h50.13v89.74s55.7-32.8,108.3,18.57c0,0,28.47-32.18,66.22-29.09v49.51s-35.89,1.86-41.46,37.75v131.2h-49.51v-131.82s-6.19-38.37-43.94-38.37-39.61,40.23-39.61,40.23v129.96H0v-297.67Z"/>
      <path class="cls-4" d="M158.43,730.84s25.44,23.52,24.75,58.17v131.2h-49.51v-131.82s-1.24-33.63,24.75-57.55Z"/>
      <circle class="cls-3" cx="158.22" cy="677.82" r="24.96"/>
    </g>
  </g>
</svg>