<?xml version="1.0" encoding="UTF-8"?>
<svg id="Layer_2" data-name="Layer 2" xmlns="http://www.w3.org/2000/svg" xmlns:xlink="http://www.w3.org/1999/xlink" viewBox="0 0 676.73 662.75">
  <defs>
    <style>
      .cls-1 {
        fill: url(#linear-gradient-12);
      }

      .cls-1, .cls-2, .cls-3, .cls-4, .cls-5, .cls-6, .cls-7, .cls-8, .cls-9, .cls-10, .cls-11, .cls-12, .cls-13, .cls-14, .cls-15, .cls-16, .cls-17, .cls-18, .cls-19, .cls-20 {
        stroke-width: 0px;
      }

      .cls-2 {
        fill: url(#linear-gradient-17);
      }

      .cls-3 {
        fill: url(#linear-gradient-19);
      }

      .cls-4 {
        fill: url(#linear-gradient);
      }

      .cls-5 {
        fill: url(#linear-gradient-6);
      }

      .cls-6 {
        fill: url(#linear-gradient-15);
      }

      .cls-7 {
        fill: url(#linear-gradient-11);
      }

      .cls-8 {
        fill: url(#linear-gradient-5);
      }

      .cls-9 {
        fill: url(#linear-gradient-13);
      }

      .cls-10 {
        fill: url(#linear-gradient-16);
      }

      .cls-11 {
        fill: url(#linear-gradient-20);
      }

      .cls-12 {
        fill: url(#linear-gradient-14);
      }

      .cls-13 {
        fill: url(#linear-gradient-2);
      }

      .cls-14 {
        fill: url(#linear-gradient-7);
      }

      .cls-15 {
        fill: url(#linear-gradient-3);
      }

      .cls-16 {
        fill: url(#linear-gradient-9);
      }

      .cls-17 {
        fill: url(#linear-gradient-8);
      }

      .cls-18 {
        fill: url(#linear-gradient-18);
      }

      .cls-19 {
        fill: url(#linear-gradient-10);
      }

      .cls-20 {
        fill: url(#linear-gradient-4);
      }
    </style>
    <linearGradient id="linear-gradient" x1="96.3" y1="595.84" x2="215.49" y2="595.84" gradientUnits="userSpaceOnUse">
      <stop offset="0" stop-color="#83c23f"/>
      <stop offset="1" stop-color="#3f8a2a"/>
    </linearGradient>
    <linearGradient id="linear-gradient-2" x1="31.7" y1="458.8" x2="358.13" y2="458.8" xlink:href="#linear-gradient"/>
    <linearGradient id="linear-gradient-3" x1="53.62" y1="413.58" x2="215.03" y2="413.58" xlink:href="#linear-gradient"/>
    <linearGradient id="linear-gradient-4" x1="114.95" y1="510.09" x2="427.86" y2="510.09" xlink:href="#linear-gradient"/>
    <linearGradient id="linear-gradient-5" x1="528.66" y1="698.83" x2="647.85" y2="698.83" gradientTransform="translate(-330.18 984.89) rotate(-74.88)" gradientUnits="userSpaceOnUse">
      <stop offset="0" stop-color="#7a2f95"/>
      <stop offset="1" stop-color="#6904ac"/>
    </linearGradient>
    <linearGradient id="linear-gradient-6" x1="464.05" y1="561.8" x2="790.48" y2="561.8" xlink:href="#linear-gradient-5"/>
    <linearGradient id="linear-gradient-7" x1="485.97" y1="516.57" x2="647.39" y2="516.57" xlink:href="#linear-gradient-5"/>
    <linearGradient id="linear-gradient-8" x1="547.31" y1="613.09" x2="860.22" y2="613.09" xlink:href="#linear-gradient-5"/>
    <linearGradient id="linear-gradient-9" x1="739.7" y1="655" x2="858.89" y2="655" gradientTransform="translate(819.46 1283.91) rotate(-140.51)" gradientUnits="userSpaceOnUse">
      <stop offset="0" stop-color="#d51ccc"/>
      <stop offset="1" stop-color="#b60d8e"/>
    </linearGradient>
    <linearGradient id="linear-gradient-10" x1="675.09" y1="517.96" x2="1001.52" y2="517.96" xlink:href="#linear-gradient-9"/>
    <linearGradient id="linear-gradient-11" x1="697.01" y1="472.74" x2="858.43" y2="472.74" xlink:href="#linear-gradient-9"/>
    <linearGradient id="linear-gradient-12" x1="758.35" y1="569.26" x2="1071.26" y2="569.26" xlink:href="#linear-gradient-9"/>
    <linearGradient id="linear-gradient-13" x1="976.83" y1="616.41" x2="1096.02" y2="616.41" gradientTransform="translate(1532.66 -48.6) rotate(144.24)" gradientUnits="userSpaceOnUse">
      <stop offset="0" stop-color="#209cd5"/>
      <stop offset="1" stop-color="#1161b6"/>
    </linearGradient>
    <linearGradient id="linear-gradient-14" x1="912.23" y1="479.37" x2="1238.65" y2="479.37" xlink:href="#linear-gradient-13"/>
    <linearGradient id="linear-gradient-15" x1="934.15" y1="434.15" x2="1095.56" y2="434.15" xlink:href="#linear-gradient-13"/>
    <linearGradient id="linear-gradient-16" x1="995.48" y1="530.67" x2="1308.39" y2="530.67" xlink:href="#linear-gradient-13"/>
    <linearGradient id="linear-gradient-17" x1="1228.6" y1="529.18" x2="1347.79" y2="529.18" gradientTransform="translate(88.49 -1129.83) rotate(68.99)" gradientUnits="userSpaceOnUse">
      <stop offset="0" stop-color="#fada20"/>
      <stop offset="1" stop-color="#ef9504"/>
    </linearGradient>
    <linearGradient id="linear-gradient-18" x1="1163.99" y1="392.15" x2="1490.42" y2="392.15" xlink:href="#linear-gradient-17"/>
    <linearGradient id="linear-gradient-19" x1="1185.91" y1="346.92" x2="1347.32" y2="346.92" xlink:href="#linear-gradient-17"/>
    <linearGradient id="linear-gradient-20" x1="1247.24" y1="443.44" x2="1560.16" y2="443.44" xlink:href="#linear-gradient-17"/>
  </defs>
  <g id="Layer_1-2" data-name="Layer 1">
    <g>
      <g>
        <path class="cls-4" d="M204.58,627.24c-8.41,12.42-20.76,18.27-34.76,22.35-22.69,6.61-49.83-3.06-62.87-23.11-9.49-14.59-12.85-30.39-9.22-47.35,3.54-16.6,13.75-28.91,27.48-38.64l.3-.21.37-.27c11,7.97,37.29,23.36,86.27,32.92l.14.5.23.76c5.93,19.83,2.88,37.09-7.93,53.06Z"/>
        <path class="cls-13" d="M358.13,541.41c-42.92,22.45-86.82,33.03-134.61,27.66h-.03s-.03-.01-.04-.01c-64.64-10.89-93.42-32.09-100.63-38.18-.11-.1-.23-.2-.33-.28-.23-.2-.44-.38-.62-.55-.16-.16-.3-.28-.45-.41-.24-.21-.38-.35-.44-.41h-.01c-8.8-7.96-17.34-15.59-25.64-23.45-21.63-20.47-37.07-45.11-47.69-72.77-9.39-24.45-15.11-49.76-15.76-76.07-.03-1.61-.35-3.47-.04-4.79.21-.89,1-1.53,1.55-2.26,2.84-3.79,8.83-3.64,10.95.6.19.39.33.78.41,1.19,2.01,11.15,2.34,22.6,4.48,33.72,11.77,61.45,45.49,108.69,97.34,142.1,50.83,32.76,107.13,41.1,166.15,28.43,15-3.22,29.39-9.29,45.42-14.5Z"/>
        <path class="cls-15" d="M215.03,492.36c-39.98,3.53-73.85-3.16-100.08-12.42-9.26-9.29-17.41-19.13-24.49-29.5-19.8-28.87-31.47-61.79-36.34-98.34-.28-2.15-.41-4.32-.48-6.5-.2-5.58.86-10.61,7.48-11.6,6.3-.95,9.91,2.2,12.24,8.14,5.41,13.87,10.35,28.07,17.27,41.19,15.59,29.59,35.79,54.13,60.59,73.64,17.02,13.38,36.23,24.39,57.62,33,2.07.84,4.12,1.63,6.2,2.39Z"/>
        <path class="cls-20" d="M427.86,473c-11.06,10.25-21.43,21.42-33.31,30.61-42.28,32.7-90.72,47.21-143.82,43.81-47.67-3.06-89.87-20.3-125.97-52.49-3.41-3.05-6.69-6.15-9.82-9.32,26.23,9.26,60.1,15.95,100.08,12.42,26.44,9.83,53.79,14.72,81.88,14.35,30.55-.4,60.31-6.47,88.25-19.4,13.95-6.47,27.55-13.75,41.3-20.68.47.24.93.48,1.4.71Z"/>
      </g>
      <g>
        <path class="cls-8" d="M540.95,560.54c9.8,11.36,12.22,24.81,12.51,39.38.47,23.63-15.95,47.3-38.72,54.66-16.56,5.35-32.69,4.47-48.11-3.45-15.1-7.75-24.32-20.82-30.13-36.61l-.13-.34-.16-.43c10.57-8.54,32.28-29.91,54.28-74.69h.52s.8-.03.8-.03c20.69-.56,36.56,6.9,49.15,21.5Z"/>
        <path class="cls-5" d="M498.15,389.92c10.47,47.29,9.23,92.43-8.42,137.16h-.02s.01.01.01.03c-.02,0-.02.02-.02.04-27.38,59.56-55.36,81.81-63.12,87.18-.13.08-.25.17-.36.24-.25.17-.48.32-.7.46-.19.11-.35.21-.51.33-.27.18-.44.28-.51.32h0c-9.98,6.43-19.58,12.68-29.33,18.64-25.4,15.54-53.22,24.01-82.69,27.05-26.05,2.69-51.98,1.61-77.55-4.63-1.57-.39-3.44-.57-4.63-1.21-.8-.43-1.22-1.36-1.78-2.09-2.92-3.73-1.21-9.48,3.44-10.41.42-.09.84-.12,1.26-.08,11.29.97,22.43,3.64,33.72,4.48,62.4,4.67,116.79-15.56,162.58-56.9,44.89-40.52,67.63-92.7,70.79-152.98.81-15.32-1.3-30.8-2.15-47.63Z"/>
        <path class="cls-14" d="M413.46,515.26c-7.03,39.52-22.32,70.47-38.1,93.37-11.39,6.52-23.01,11.81-34.87,15.94-33.03,11.58-67.87,14.26-104.41,9.43-2.15-.29-4.28-.73-6.4-1.23-5.44-1.26-10.02-3.6-9.25-10.25.73-6.33,4.71-9,11.05-9.69,14.8-1.61,29.8-2.67,44.27-5.92,32.63-7.33,61.6-20.43,86.89-39.28,17.36-12.94,33-28.61,46.89-47.01,1.35-1.78,2.65-3.55,3.93-5.36Z"/>
        <path class="cls-17" d="M450.3,304.75c7.01,13.35,15.08,26.27,20.86,40.14,20.54,49.35,21.9,99.89,4.77,150.26-15.39,45.22-43.04,81.46-83.54,107.91-3.83,2.5-7.68,4.85-11.56,7.04,15.79-22.91,31.07-53.85,38.1-93.37,16.39-22.96,28.24-48.09,35.21-75.3,7.59-29.6,9.49-59.91,4.29-90.26-2.61-15.16-6.09-30.18-9.19-45.27.35-.39.71-.78,1.05-1.17Z"/>
      </g>
      <g>
        <path class="cls-16" d="M601.56,214.93c14.39-4.24,27.64-.9,41.04,4.86,21.72,9.32,36.51,34.05,33.82,57.82-1.95,17.29-9.42,31.63-22.99,42.4-13.29,10.56-29,13.56-45.78,12.34l-.36-.03-.46-.03c-3.42-13.15-13.93-41.74-45.64-80.26l.21-.47.31-.73c8.03-19.08,21.37-30.46,39.86-35.9Z"/>
        <path class="cls-19" d="M428.48,183.52c47.4,9.97,88.01,29.72,121.47,64.26v.02s.01-.01.02,0c0,.02.01.03.02.04,42.96,49.51,51.69,84.18,53.38,93.46.02.15.05.3.07.43.05.3.1.57.13.82.02.22.05.41.09.61.05.32.07.52.08.6h.01c1.73,11.75,3.46,23.07,4.87,34.41,3.68,29.55-.08,58.38-9.48,86.49-8.3,24.84-19.98,48.01-36.21,68.73-1,1.26-1.94,2.9-3.01,3.72-.73.55-1.74.55-2.63.76-4.61,1.12-9.13-2.81-8.06-7.43.1-.42.24-.82.44-1.18,5.54-9.88,12.57-18.93,17.99-28.87,30-54.91,34.01-112.81,15.24-171.57-18.4-57.61-56.54-99.85-110.15-127.6-13.62-7.06-28.59-11.52-44.28-17.69Z"/>
        <path class="cls-7" d="M507.71,312.38c33.1,22.71,54.98,49.4,69.34,73.23,1.24,13.06,1.26,25.84.14,38.34-3.08,34.87-15.01,67.7-34.49,99-1.15,1.84-2.43,3.6-3.76,5.32-3.4,4.43-7.41,7.64-13.15,4.2-5.47-3.28-6.26-8-4.26-14.07,4.64-14.14,9.86-28.25,12.87-42.77,6.78-32.75,6.8-64.54.07-95.36-4.63-21.16-12.45-41.86-23.48-62.11-1.06-1.96-2.14-3.88-3.27-5.79Z"/>
        <path class="cls-1" d="M331.15,191.97c15.06-.88,30.16-2.9,45.17-2.44,53.42,1.65,100.03,21.26,138.85,57.65,34.85,32.68,56.45,72.81,63.84,120.62.7,4.52,1.25,9,1.65,13.43-14.35-23.83-36.24-50.52-69.34-73.23-14.16-24.4-32.16-45.57-54.06-63.14-23.83-19.12-50.66-33.36-80.45-41.15-14.88-3.88-30.01-6.91-45.02-10.31-.21-.48-.42-.97-.63-1.44Z"/>
      </g>
      <g>
        <path class="cls-9" d="M273.55,59.92c-.43-15,6.17-26.96,15.14-38.45,14.55-18.63,42.22-26.64,64.53-17.99,16.23,6.29,28.19,17.16,35.15,33.03,6.83,15.54,5.74,31.49.29,47.41l-.12.35-.14.43c-13.59-.04-43.91,2.84-89.24,23.71l-.4-.32-.63-.49c-16.4-12.62-24.01-28.42-24.57-47.69Z"/>
        <path class="cls-12" d="M199.12,219.3c21.7-43.3,51.15-77.54,93.06-101.12h.02s0,0,0-.02c.02,0,.03,0,.04-.01,58.82-28.94,94.56-28.56,103.97-27.83.15.01.3.03.43.04.3.03.58.05.83.08.22.04.41.06.61.07.32.03.52.06.6.08h.01c11.79,1.31,23.18,2.51,34.51,4.04,29.51,3.97,56.44,14.94,81.23,31.18,21.91,14.35,41.34,31.54,57.25,52.51.97,1.29,2.32,2.61,2.83,3.86.35.84.08,1.82.07,2.74-.09,4.74-5.04,8.12-9.24,5.91-.38-.2-.73-.44-1.03-.73-8.15-7.87-15.11-16.98-23.34-24.75-45.47-42.99-100.44-61.61-162.04-58.41-60.39,3.13-110.95,29.26-151.43,74.04-10.29,11.37-18.42,24.72-28.38,38.31Z"/>
        <path class="cls-6" d="M343.9,175.48c30.38-26.23,61.77-40.6,88.47-48.41,12.95,2.13,25.31,5.35,37.11,9.63,32.94,11.85,61.65,31.75,86.96,58.55,1.49,1.58,2.86,3.27,4.19,4.99,3.42,4.41,5.5,9.11.71,13.78-4.56,4.45-9.33,4.01-14.69.54-12.49-8.09-24.81-16.73-38.08-23.33-29.95-14.89-60.68-23.01-92.2-24.34-21.64-.91-43.65,1.38-66.04,6.9-2.17.53-4.3,1.09-6.43,1.68Z"/>
        <path class="cls-10" d="M182.52,315.58c2.98-14.79,4.87-29.9,9.14-44.3,15.19-51.25,46.02-91.32,91.09-119.6,40.47-25.38,84.78-36.05,132.89-31.03,4.55.48,9.02,1.08,13.41,1.83-26.7,7.81-58.08,22.18-88.47,48.41-27.2,7.48-52.25,19.5-74.82,36.21-24.56,18.18-45.15,40.5-60.27,67.32-7.54,13.41-14.32,27.26-21.43,40.92-.52.08-1.04.16-1.55.24Z"/>
      </g>
      <g>
        <path class="cls-2" d="M44.45,319.15c-14.61-3.4-24.5-12.83-33.32-24.43-14.31-18.81-15.01-47.61-.96-66.98,10.22-14.09,23.77-22.89,40.9-25.58,16.77-2.65,31.92,2.47,45.92,11.8l.3.2.38.25c-3.5,13.13-8.43,43.19.2,92.34l-.41.31-.63.49c-16.38,12.65-33.6,15.98-52.37,11.62Z"/>
        <path class="cls-18" d="M179.62,431.72c-36.34-32.01-61.96-69.21-74.08-115.74v-.02s0,0-.01,0c0-.02,0-.03,0-.04-13.01-64.25-3.53-98.72-.43-107.63.05-.14.1-.28.15-.41.1-.28.2-.55.29-.78.09-.2.16-.38.22-.57.11-.3.19-.48.23-.56h0c4.28-11.08,8.34-21.79,12.7-32.35,11.35-27.53,28.82-50.77,50.84-70.61,19.45-17.53,41.03-31.95,65.36-41.99,1.5-.61,3.12-1.57,4.45-1.76.9-.12,1.79.38,2.67.63,4.56,1.29,6.56,6.94,3.36,10.44-.29.32-.61.59-.97.81-9.68,5.87-20.26,10.29-29.88,16.27-53.15,33.02-85.16,81.43-97.76,141.82-12.36,59.2.04,114.75,33.03,165.3,8.38,12.85,19.21,24.1,29.82,37.2Z"/>
        <path class="cls-3" d="M174.11,280.55c-17.63-36.06-23.53-70.07-24.28-97.88,5.35-11.98,11.62-23.11,18.76-33.44,19.85-28.83,46.4-51.53,78.77-69.18,1.91-1.04,3.89-1.93,5.9-2.78,5.14-2.19,10.21-3,13.51,2.82,3.15,5.54,1.51,10.04-3.22,14.34-11,10.02-22.49,19.73-32.26,30.88-22.03,25.16-37.7,52.82-47.02,82.96-6.39,20.69-9.78,42.57-10.15,65.62-.04,2.23-.04,4.43-.01,6.65Z"/>
        <path class="cls-11" d="M268.49,472.29c-13.54-6.65-27.67-12.33-40.52-20.12-45.69-27.74-76.59-67.76-92.45-118.55-14.24-45.6-13.27-91.17,3.84-136.41,1.62-4.28,3.34-8.44,5.18-12.5.76,27.81,6.66,61.82,24.28,97.88.3,28.21,5.55,55.49,15.96,81.58,11.32,28.38,27.66,53.98,49.75,75.43,11.04,10.7,22.71,20.79,34.11,31.14-.06.52-.11,1.05-.16,1.56Z"/>
      </g>
    </g>
  </g>
</svg>