<?xml version="1.0" encoding="UTF-8"?>
<svg id="Layer_2" data-name="Layer 2" xmlns="http://www.w3.org/2000/svg" xmlns:xlink="http://www.w3.org/1999/xlink" viewBox="0 0 455.08 432.39">
  <defs>
    <style>
      .cls-1 {
        fill: url(#linear-gradient);
      }

      .cls-1, .cls-2, .cls-3, .cls-4, .cls-5, .cls-6, .cls-7 {
        stroke-width: 0px;
      }

      .cls-2 {
        fill: url(#linear-gradient-5);
      }

      .cls-3 {
        fill: url(#linear-gradient-2);
      }

      .cls-4 {
        fill: url(#linear-gradient-3);
      }

      .cls-5 {
        fill: #8745e1;
      }

      .cls-6 {
        fill: url(#linear-gradient-4);
      }

      .cls-7 {
        fill: #3e49ee;
      }
    </style>
    <linearGradient id="linear-gradient" x1="0" y1="279.13" x2="277.26" y2="279.13" gradientUnits="userSpaceOnUse">
      <stop offset="0" stop-color="#e339eb"/>
      <stop offset=".24" stop-color="#dc3fea"/>
      <stop offset=".59" stop-color="#ca51ea"/>
      <stop offset=".98" stop-color="#ac6eea"/>
      <stop offset="1" stop-color="#ab70ea"/>
    </linearGradient>
    <linearGradient id="linear-gradient-2" x1="300.05" y1="446.46" x2="300.05" y2="134.85" gradientUnits="userSpaceOnUse">
      <stop offset="0" stop-color="#8e87f3"/>
      <stop offset=".12" stop-color="#878cf3"/>
      <stop offset=".3" stop-color="#759cf3"/>
      <stop offset=".37" stop-color="#6ca5f4"/>
      <stop offset=".63" stop-color="#5cb4f3"/>
      <stop offset="1" stop-color="#40d1f3"/>
    </linearGradient>
    <linearGradient id="linear-gradient-3" x1="320.73" y1="312.01" x2="455.08" y2="312.01" xlink:href="#linear-gradient-2"/>
    <linearGradient id="linear-gradient-4" x1="248.65" y1="279" x2="248.74" y2="279" xlink:href="#linear-gradient-2"/>
    <linearGradient id="linear-gradient-5" x1="248.65" y1="275.68" x2="248.72" y2="275.68" xlink:href="#linear-gradient-2"/>
  </defs>
  <g id="Layer_1-2" data-name="Layer 1">
    <g>
      <path class="cls-1" d="M274.97,363.22l-17.85-12.33c-2.42-1.68-3.47-3.61-5.25-1.26-4.77,6.29-12.41,14.62-18.27,19.82-.5.44-1,.88-1.51,1.32-.53.46-1.08.92-1.62,1.37-.51.42-1.02.85-1.54,1.26-.55.44-1.11.88-1.67,1.32-.52.4-1.04.8-1.57,1.2-.57.43-1.14.85-1.72,1.26-.53.38-1.07.76-1.61,1.14-.59.41-1.18.81-1.77,1.21-.54.37-1.09.73-1.64,1.08-.6.39-1.2.77-1.81,1.15-.55.35-1.11.69-1.67,1.02-.62.37-1.24.73-1.86,1.09-.56.33-1.13.65-1.7.97-.63.35-1.26.69-1.89,1.02-.58.31-1.15.61-1.74.91-.64.33-1.28.65-1.93.96-.59.29-1.17.57-1.76.85-.66.31-1.32.61-1.98.9-.59.26-1.18.52-1.77.78-.67.29-1.35.57-2.02.84-.58.24-1.16.47-1.75.7-.8.31-1.6.61-2.4.89-.55.2-1.1.4-1.65.6-.82.28-1.64.55-2.47.82-.54.17-1.08.36-1.63.52-.87.26-1.73.51-2.6.76-.51.14-1.02.3-1.54.44-.95.25-1.91.49-2.86.73-.44.11-.88.22-1.31.32-1.25.29-2.5.56-3.76.81-.15.03-.3.07-.45.1-.87.17-1.75.31-2.62.46-.59.1-1.18.22-1.77.31-.88.14-1.76.25-2.64.37-.59.08-1.18.17-1.77.25-.89.11-1.79.18-2.69.27-.57.06-1.15.13-1.73.17-.9.08-1.8.13-2.71.18-.58.03-1.15.08-1.73.11-.9.04-1.8.06-2.71.08-.58.01-1.15.04-1.73.04-.9,0-1.81,0-2.72-.02-.58,0-1.15,0-1.72-.02-.91-.02-1.82-.08-2.72-.13-.57-.03-1.14-.04-1.72-.08-.92-.06-1.84-.14-2.76-.23-.56-.05-1.12-.09-1.67-.14-.95-.1-1.9-.23-2.85-.34-.52-.07-1.05-.12-1.57-.19-1.01-.14-2.01-.31-3.02-.48-.46-.08-.92-.13-1.38-.22-1.11-.2-2.21-.42-3.31-.65-.36-.07-.71-.13-1.07-.21-1.2-.25-2.4-.54-3.59-.84-.25-.06-.51-.12-.76-.18-1.26-.32-2.51-.67-3.76-1.03-.18-.05-.36-.1-.54-.15-1.19-.35-2.37-.73-3.54-1.11-.24-.08-.47-.14-.71-.22-.92-.31-1.83-.64-2.74-.98-.49-.17-.98-.34-1.46-.52-.75-.28-1.49-.59-2.23-.88-.64-.25-1.28-.5-1.92-.76-.72-.3-1.42-.63-2.14-.94-.65-.28-1.3-.56-1.94-.86-.73-.34-1.45-.7-2.17-1.05-.61-.3-1.23-.58-1.83-.89-.74-.38-1.47-.77-2.2-1.16-.58-.31-1.16-.61-1.73-.92-.73-.41-1.45-.84-2.17-1.26-.56-.33-1.12-.64-1.67-.97-.72-.43-1.43-.89-2.14-1.34-.54-.34-1.09-.67-1.62-1.02-.71-.46-1.4-.95-2.1-1.43-.52-.36-1.05-.71-1.57-1.07-.69-.49-1.37-1.01-2.05-1.52-.51-.38-1.02-.74-1.52-1.12-.68-.52-1.35-1.07-2.02-1.6-.49-.39-.98-.77-1.46-1.17-.69-.57-1.36-1.15-2.03-1.74-.45-.38-.9-.76-1.35-1.15-.71-.63-1.4-1.29-2.1-1.94-.39-.37-.78-.72-1.17-1.08-.77-.74-1.52-1.5-2.27-2.26-.29-.3-.6-.58-.88-.89-.83-.85-1.63-1.72-2.43-2.59-.2-.23-.41-.44-.62-.67-.82-.91-1.62-1.85-2.41-2.78-.16-.2-.34-.38-.51-.58-.73-.87-1.43-1.76-2.13-2.65-.22-.28-.45-.55-.67-.83-.55-.71-1.08-1.44-1.62-2.16-.35-.47-.71-.93-1.05-1.41-.44-.61-.86-1.24-1.28-1.86-.42-.6-.84-1.2-1.25-1.81-.4-.61-.79-1.24-1.18-1.86-.41-.63-.82-1.26-1.21-1.9-.39-.64-.77-1.3-1.15-1.96-.37-.63-.75-1.25-1.1-1.88-.38-.68-.74-1.37-1.11-2.05-.33-.62-.68-1.24-1-1.86-.36-.7-.7-1.41-1.04-2.12-.3-.63-.62-1.24-.91-1.87-.33-.71-.64-1.42-.96-2.14-.28-.63-.58-1.27-.86-1.91-.3-.71-.58-1.43-.87-2.15-.26-.66-.54-1.31-.79-1.98-.27-.72-.52-1.45-.79-2.18-.24-.67-.49-1.33-.72-2-.25-.74-.48-1.48-.71-2.22-.22-.67-.44-1.34-.64-2.01-.23-.76-.43-1.52-.64-2.28-.19-.67-.38-1.33-.56-2-.21-.8-.39-1.61-.58-2.41-.15-.63-.32-1.27-.46-1.91-.19-.87-.36-1.75-.53-2.62-.12-.58-.25-1.16-.35-1.75-.17-.93-.31-1.87-.46-2.81-.09-.53-.18-1.06-.26-1.59-.13-.89-.23-1.77-.34-2.66-.07-.59-.16-1.17-.22-1.77-.08-.74-.13-1.48-.2-2.22-.07-.74-.14-1.48-.2-2.22-.04-.59-.06-1.18-.09-1.77-.05-.89-.11-1.78-.14-2.68-.01-.54,0-1.08-.02-1.62-.01-.95-.04-1.89-.04-2.84,0-.6.03-1.19.04-1.78.02-.89.02-1.79.06-2.68.02-.65.08-1.31.12-1.96.05-.83.08-1.65.15-2.48.05-.69.13-1.38.2-2.07.07-.79.14-1.57.23-2.36.08-.7.19-1.39.28-2.09.1-.77.19-1.54.31-2.31.11-.7.24-1.4.36-2.1.13-.76.25-1.52.39-2.28.13-.69.29-1.39.44-2.08.15-.76.3-1.51.48-2.26.15-.68.33-1.36.5-2.04.19-.76.37-1.52.57-2.27.18-.67.38-1.34.57-2.01.22-.76.42-1.51.65-2.26.21-.67.44-1.35.66-2.02.24-.74.47-1.48.73-2.21.24-.68.5-1.36.75-2.04.26-.71.51-1.43.79-2.14.27-.7.57-1.39.86-2.09.28-.68.55-1.36.84-2.03.29-.67.61-1.34.91-2.01.31-.68.61-1.38.93-2.05.25-.53.53-1.05.79-1.57.4-.81.79-1.62,1.21-2.41.17-.32.35-.62.51-.93.53-1,1.07-2,1.63-2.98.13-.22.26-.44.39-.66.62-1.06,1.24-2.12,1.89-3.16.16-.26.33-.5.5-.76.63-1,1.27-2,1.93-2.98.23-.35.48-.68.72-1.02.61-.88,1.21-1.76,1.84-2.62.31-.43.64-.85.96-1.27.57-.76,1.14-1.52,1.73-2.27.37-.46.75-.91,1.12-1.38.56-.69,1.12-1.39,1.69-2.06.4-.48.83-.94,1.24-1.4.57-.65,1.13-1.3,1.7-1.93.42-.47.87-.91,1.3-1.38.59-.62,1.16-1.24,1.76-1.85.45-.45.91-.89,1.36-1.33.6-.6,1.2-1.2,1.81-1.77.46-.44.94-.86,1.41-1.29.62-.57,1.24-1.14,1.87-1.7.49-.42.98-.83,1.47-1.25.64-.54,1.27-1.09,1.92-1.62.5-.41,1.02-.81,1.53-1.21.65-.51,1.3-1.04,1.96-1.54.54-.4,1.09-.79,1.64-1.19.65-.48,1.3-.96,1.96-1.42.58-.41,1.17-.79,1.76-1.19.64-.43,1.28-.88,1.94-1.3.58-.38,1.17-.73,1.76-1.09.68-.42,1.35-.86,2.04-1.26.44-.26.9-.51,1.35-.77.84-.48,1.67-.97,2.53-1.44.22-.12.44-.23.66-.34,1.09-.59,2.18-1.17,3.29-1.72.17-.08.34-.16.51-.24,1.16-.57,2.33-1.14,3.52-1.67.24-.11.48-.2.71-.31,1.12-.5,2.25-.99,3.39-1.46.34-.14.68-.26,1.01-.39,1.04-.42,2.09-.83,3.14-1.22.44-.16.88-.3,1.32-.46.96-.34,1.92-.68,2.89-1,.5-.16,1.01-.31,1.51-.46.91-.28,1.83-.58,2.75-.84.53-.15,1.08-.29,1.62-.43.89-.24,1.78-.49,2.68-.71.55-.13,1.12-.25,1.67-.38.89-.2,1.77-.41,2.66-.6.56-.12,1.13-.21,1.69-.32.89-.17,1.78-.35,2.67-.5.57-.1,1.14-.17,1.71-.26.89-.14,1.78-.28,2.68-.4.57-.08,1.15-.13,1.73-.2.89-.1,1.78-.22,2.68-.3.59-.06,1.18-.09,1.77-.14.89-.07,1.77-.15,2.67-.2.59-.03,1.19-.04,1.78-.07.89-.04,1.77-.09,2.66-.11.6-.01,1.2,0,1.8,0,.89,0,1.77-.02,2.66,0,.15,0,.31,0,.46.01,1.28.02,2.56.07,3.84.13.45.02.9.06,1.35.09.98.06,1.96.13,2.95.21.53.05,1.06.11,1.59.16.89.09,1.79.18,2.69.29.56.07,1.13.15,1.69.23.86.12,1.72.24,2.58.38.58.09,1.15.19,1.74.29.31.05.62.11.92.17,0,.11-.02.21-.03.32.66.13,1.33.26,1.98.39.64.13,1.28.27,1.91.41.7.16,1.4.32,2.1.48.63.15,1.27.32,1.9.48.69.18,1.39.36,2.08.55.63.17,1.26.35,1.89.54.69.2,1.37.41,2.05.62.62.19,1.25.39,1.87.6.68.23,1.35.46,2.03.69.62.22,1.23.44,1.86.67.67.25,1.33.5,1.99.75.62.24,1.23.49,1.84.73.66.27,1.31.54,1.96.82.61.26,1.22.53,1.82.8.65.29,1.29.58,1.92.89.61.29,1.2.58,1.81.87,7.03,3.46,13.75,7.58,20.03,12.37,2.34,1.79,5.71,1.49,7.59-.77l13.9-16.65c1.89-2.27,1.59-5.64-.74-7.45-7.46-5.79-15.41-10.84-23.73-15.14-.06-.03-.1-.08-.16-.11-.53-.27-1.07-.52-1.6-.79-.78-.39-1.55-.78-2.33-1.15-.82-.4-1.64-.77-2.47-1.15-.78-.36-1.56-.71-2.35-1.06-.84-.37-1.68-.72-2.52-1.07-.79-.33-1.58-.66-2.38-.97-.85-.34-1.7-.66-2.56-.98-.8-.3-1.59-.6-2.4-.88-.86-.31-1.73-.6-2.6-.89-.8-.27-1.61-.54-2.42-.8-.42-.13-.84-.26-1.26-.39.07-.11.13-.23.2-.34-.82-.25-1.64-.49-2.46-.73-.81-.23-1.61-.47-2.42-.68-.9-.25-1.81-.48-2.72-.71-.81-.2-1.61-.4-2.42-.59-.93-.22-1.86-.42-2.78-.62-.53-.12-1.06-.25-1.6-.36-.26-.05-.52-.09-.77-.14-1.08-.21-2.16-.4-3.24-.6-.73-.13-1.45-.26-2.18-.38-1.11-.18-2.23-.34-3.35-.49-.7-.1-1.39-.2-2.09-.29-1.17-.15-2.35-.26-3.53-.38-.64-.07-1.29-.14-1.94-.2-1.29-.11-2.59-.19-3.89-.27-.53-.03-1.06-.08-1.6-.11-1.67-.09-3.35-.14-5.04-.17-.15,0-.3-.01-.46-.01-.03,0-.06,0-.1,0-1.83-.03-3.66-.02-5.48.01-.21,0-.41.02-.62.02-1.63.04-3.25.1-4.87.19-.63.04-1.25.1-1.88.14-1.19.08-2.39.16-3.58.27-.79.07-1.58.17-2.37.25-1.02.11-2.04.22-3.05.35-.89.12-1.78.25-2.67.38-.9.13-1.81.25-2.71.4-.97.16-1.92.34-2.89.52-.82.15-1.64.3-2.45.46-1.02.21-2.04.43-3.06.66-.74.17-1.49.33-2.23.5-1.07.25-2.14.53-3.2.81-.68.18-1.36.35-2.03.54-1.11.31-2.21.63-3.31.96-.63.19-1.25.37-1.86.57-1.14.36-2.28.74-3.42,1.12-.56.19-1.13.38-1.69.59-1.18.41-2.35.85-3.52,1.29-.51.19-1.01.39-1.52.59-.66.26-1.32.5-1.98.77-.55.23-1.09.47-1.63.7-.44.19-.88.38-1.32.57-1.26.54-2.5,1.1-3.74,1.68-.36.17-.72.34-1.08.51-1.3.62-2.59,1.25-3.87,1.9-.27.14-.55.29-.82.43-1.36.7-2.7,1.42-4.03,2.16-.18.1-.36.2-.53.3-1.42.8-2.82,1.61-4.21,2.45,0,0-.01,0-.02,0,0,0-.01,0-.02.01-1.13.66-2.36,1.43-3.72,2.3-.01,0-.02.01-.03.02-.03.01-.05.03-.08.05-17.31,11.18-32.28,25.8-43.91,43.05-5.32,7.89-9.87,16.22-13.61,24.88,0,.01-.01.02-.02.04-.36.82-.68,1.65-1.02,2.48-.36.88-.74,1.74-1.08,2.62-.36.92-.69,1.86-1.03,2.79-.31.83-.63,1.66-.92,2.51-.33.95-.63,1.91-.94,2.87-.27.83-.56,1.65-.81,2.49-.29.96-.56,1.93-.84,2.9-.24.84-.49,1.67-.72,2.51-.26.98-.49,1.96-.73,2.94-.21.84-.43,1.68-.63,2.53-.23.98-.41,1.96-.62,2.95-.18.85-.37,1.7-.53,2.56-.19.99-.34,1.98-.51,2.96-.14.86-.31,1.72-.44,2.59-.15,1-.27,2-.4,3-.12.86-.25,1.72-.34,2.58-.12,1.02-.2,2.04-.3,3.07-.08.85-.18,1.69-.25,2.54-.08,1.07-.13,2.14-.19,3.21-.04.81-.11,1.62-.14,2.42-.05,1.16-.06,2.33-.08,3.49-.01.7-.04,1.4-.05,2.11v.05c0,1.25.03,2.49.05,3.74.01.63,0,1.27.03,1.91.04,1.18.12,2.35.18,3.53.04.71.06,1.42.11,2.13.07.94.17,1.88.25,2.81.08.94.15,1.88.25,2.82.08.7.18,1.4.26,2.11.14,1.17.27,2.34.44,3.5.09.63.21,1.26.31,1.89.19,1.23.38,2.47.61,3.69,0,.01,0,.03,0,.05.13.69.28,1.38.41,2.07.23,1.14.44,2.28.69,3.42.17.79.38,1.58.57,2.37.25,1.04.48,2.08.75,3.12.22.82.46,1.64.69,2.46.27.99.54,1.99.83,2.97.25.83.52,1.65.79,2.48.31.96.6,1.93.92,2.89.28.83.6,1.64.89,2.47.34.95.66,1.89,1.02,2.83.31.81.65,1.62.98,2.42.37.93.73,1.87,1.13,2.8.34.8.71,1.58,1.06,2.38.41.92.81,1.85,1.24,2.77.37.78.76,1.56,1.14,2.34.45.91.88,1.82,1.34,2.72.4.77.82,1.53,1.23,2.3.48.89.94,1.78,1.44,2.67.44.77.9,1.53,1.35,2.3.5.86.99,1.72,1.51,2.56.49.8,1.01,1.59,1.52,2.39.49.77.97,1.55,1.47,2.32v-.03c5.19,7.87,11.13,15.28,17.76,22.11,14.48,14.93,31.78,26.69,50.78,34.66.03.01.06.02.1.04.01,0,.02,0,.03.01,1.47.62,2.8,1.14,4.01,1.59.03.01.06.02.09.03,0,0,.01,0,.02,0,1.52.58,3.05,1.14,4.58,1.67.19.07.38.14.58.21,1.44.5,2.89.96,4.35,1.42.29.09.59.19.88.27,1.38.42,2.76.81,4.15,1.19.38.11.77.22,1.15.32,1.32.35,2.65.68,3.97,1,.47.11.93.22,1.39.33.58.13,1.15.28,1.73.4.7.15,1.39.27,2.09.41.53.11,1.06.21,1.6.31,1.23.23,2.46.45,3.69.65.59.1,1.18.19,1.77.28,1.19.18,2.38.35,3.56.5.64.09,1.28.16,1.93.24,1.14.13,2.29.25,3.43.36.7.07,1.4.12,2.1.17,1.1.09,2.19.17,3.29.24.76.04,1.52.07,2.28.11,1.04.04,2.09.09,3.13.11.83.02,1.66.02,2.49.02.98,0,1.96.01,2.93,0,.91,0,1.83-.05,2.74-.08.9-.02,1.8-.04,2.7-.09,1.02-.05,2.04-.13,3.06-.2.79-.05,1.59-.1,2.38-.16,1.19-.1,2.38-.23,3.57-.36.63-.07,1.25-.12,1.88-.2,1.61-.19,3.22-.42,4.83-.67.2-.03.41-.05.61-.09,1.8-.28,3.61-.6,5.41-.95.03,0,.06-.01.09-.02.15-.03.3-.07.45-.1,1.65-.33,3.29-.68,4.92-1.06.52-.12,1.03-.26,1.55-.38,1.26-.31,2.53-.62,3.78-.96.63-.17,1.25-.36,1.88-.54,1.14-.32,2.27-.64,3.41-1,.67-.21,1.34-.43,2.01-.65,1.07-.35,2.15-.7,3.21-1.07.7-.25,1.39-.5,2.08-.76,1.03-.38,2.06-.76,3.08-1.16.25-.1.49-.18.74-.27.51-.2,1.01-.42,1.51-.63.88-.36,1.76-.72,2.64-1.1.76-.33,1.52-.67,2.27-1.01.86-.38,1.71-.77,2.56-1.17.76-.36,1.51-.73,2.26-1.1.83-.41,1.66-.82,2.49-1.25.75-.39,1.49-.78,2.24-1.18.81-.44,1.63-.88,2.43-1.33.74-.41,1.47-.84,2.2-1.26.79-.46,1.59-.92,2.38-1.4.73-.44,1.44-.89,2.16-1.34.78-.49,1.55-.98,2.32-1.48.71-.47,1.42-.94,2.12-1.42.76-.51,1.51-1.03,2.26-1.56.7-.49,1.39-.99,2.07-1.49.74-.54,1.48-1.08,2.2-1.63.68-.52,1.36-1.04,2.03-1.57.72-.56,1.43-1.13,2.14-1.7.67-.54,1.33-1.1,1.99-1.65.69-.58,1.39-1.17,2.07-1.77.65-.57,1.29-1.15,1.94-1.73.44-.39.89-.78,1.33-1.18.05-.05.08-.1.13-.15,6.87-6.37,13.18-13.36,18.81-20.94,1.76-2.37,1.14-5.7-1.28-7.37Z"/>
      <path class="cls-3" d="M346.44,389.79c-.94-1.27-2.12-1.12-3.33-.52-2.9,1.48-6.1,2.19-9.23,2.49-5.59.53-11.24.28-16.86.08-.43-.02-.91-.01-1.29-.17-2.95-1.29-6.2-1.35-9.23-2.61-4.13-1.73-8.28-3.24-11.74-6.19-2.95-2.52-5.75-5.16-8.24-8.19-1.65-2.02-2.87-4.29-4.06-6.49-.8-1.5-2.12-2.79-2.54-4.45-1.01-3.98-2.42-7.84-3.58-11.77-1.4-4.78-1.58-9.67-2.55-14.46-.83-4.12-.71-8.32-.94-12.49-.4-7.35-1.37-14.68-1.2-22.06.1-3.81.21-7.63.33-11.45v-.04c.19-5.99.4-11.98.57-17.96.08-2.99.16-5.97.22-8.96.11-6.05,2.08-11.34,5.9-15.89,2.27-2.71,5.12-4.67,8.3-6.36,4.83-2.58,9.9-3.38,15.22-3.33,1.73.01,3.47.36,5.2.56,3.38.4,6.47,1.78,9.27,3.48.54.33,1.06.67,1.57,1.03.87.62,1.7,1.29,2.48,2.01,1.94-8.76,7.73-16.07,15.49-20.11-1.92-1.66-3.99-3.12-6.1-4.57-.23-.15-.46-.31-.68-.47-3.5-2.41-7.35-3.95-11.23-5.28-.28-.1-.51-.17-.71-.24-3.15-1.06-6.55-1.68-9.99-2.03-7.63-.76-15.06-.05-22.34,1.98-3.86,1.08-7.59,2.82-11.16,4.69-.69.35-1.36.76-2.01,1.19v-24.44h-23.34v69.66c.02,6.13.04,12.26.06,18.39.01,2.22.01,4.45.02,6.67.03,6.95.05,13.92.07,20.87.01,1.44.1,2.88.11,4.32.01,6.93,1.05,13.81,1.17,20.73.07,3.15.41,6.22,1.16,9.23.89,3.64,1.22,7.38,2.47,10.99,1.01,2.87,1.94,5.77,2.97,8.65.64,1.77,1.82,3.08,2.57,4.69.98,2.14,2.21,4.18,3.81,5.93,2.09,2.28,4.02,4.67,6.62,6.53,1.77,1.26,3.49,2.7,5.33,3.83,2.66,1.65,5.58,2.92,8.46,4.19,1.79.79,3.65,1.54,5.56,1.89,3.29.6,6.47,1.6,9.84,1.95,3.45.35,6.83,1.33,10.36,1.19,2.31-.09,4.65-.14,6.93.14,9.42,1.14,18.76.57,28.05-1,2.38-.41,4.91-.49,7.23-1.8-1.72-1.48-3.72-2.33-5.01-4.06Z"/>
      <path class="cls-4" d="M454.93,335.34c-.25-18.2,1.13-36.45-1.48-54.59-.05-.3-.08-.64-.23-.9-1.34-2.48-2.18-5.19-3.24-7.79-1.5-3.62-3.99-6.42-6.37-9.36-3.69-4.57-8.62-7.52-13.78-10.09-5.18-2.59-10.55-4.3-16.48-4.12-4.85.14-9.72-.19-14.34,1.65-3.6,1.43-7.07,3.18-10.37,5.2-5.72,3.5-9.79,8.53-13.26,14.14-1.92,3.11-2.63,6.71-4,10.05-1.08,2.65-.32,5.61-1.43,8.25-.88,2.08-.77,4.27-.77,6.44,0,18.06-.01,36.12-.02,54.18,0,.82.03,1.65-.16,2.42-1.67,6.53-2.7,12.93,1.61,19.01,1.78,2.5,4.01,4.5,6.12,6.64.38.39,1.01.69,1.64,0,1.84-2.01,3.17-4.4,4.38-6.75,1.13-2.18,2.5-4.3,3.09-6.77.69-2.93,2.06-5.78,2.27-8.73.21-3.22.63-6.42,1.04-9.62,1.16-9.1.54-18.21.4-27.32-.17-11.56-2.22-23.22,2.4-34.48.65-1.59,1.46-3.15,2.55-4.19,2.11-2.02,3.95-4.47,6.89-5.56,2.6-.95,5-2.45,7.93-2.39,3.59.06,7.06-.01,10.64,1.24,4.18,1.47,7.31,3.97,10.01,7.16,2.18,2.57,2.94,6,3.51,9.18.82,4.71,1.13,9.52,1,14.34-.26,9.19.18,18.37.47,27.54.21,6.56-.27,13.08-1.11,19.59-.41,3.31-.51,6.59-1.52,9.88-.7,2.27-1.19,4.77-2.2,6.82-2.27,4.63-4.35,9.48-8.52,12.96-2.07,1.74-4.12,3.45-6.39,4.92-2.69,1.75-5.59,3.15-8.59,4.11-2.17.69-4.28,1.75-6.58,1.9-2.81.19-5.63.14-8.43.25-5.74.21-10.92-1.42-15.68-4.55-2.09-1.39-3.99-3-5.78-4.76-1.77-1.73-3.15-3.77-4.5-5.76-1.7-2.51-2.9-5.38-4.31-8.1-.6-1.14-1.39-2.2-1.31-3.58-.46-1.01-1.21-2-1.29-3.03-.21-2.68-1.19-5.23-1.88-7.71-1.31-4.64-1.52-9.42-2.66-14.06-1.49-6.02-1.15-12.27-1.47-18.41-.48-9.29-.08-18.59.43-27.9.19-3.44.3-6.87.33-10.3.07-9.03-.46-18.06-1.76-27.03-.46-3.16-1.08-6.39-2.25-9.33-.8-2.01-1.65-4.06-2.61-6.04-2.1-4.29-4.89-8.03-8.09-11.51-.82-.89-1.68-1.71-2.59-2.5h0c-7.76,4.03-13.54,11.35-15.49,20.11,2.43,2.22,4.42,4.9,5.86,7.99,1.33,2.83,2.53,5.78,2.43,9.05-.03,1.05-.2,2.13.18,3.16.18,2.48.49,4.95.52,7.44,0,.33.01.67.02,1.01.08,6.03.24,12.06.12,18.11-.31,15.11-.6,30.22.7,45.31.18,2.04.28,4.18.96,6.08,1.35,3.77,1.43,7.78,2.68,11.57.93,2.84,1.66,5.79,2.48,8.68.25.93,1.16,1.71,1.31,2.64.49,2.91,2.1,5.31,3.66,7.56,2.35,3.39,5.02,6.61,8.36,9.17,1.35,1.03,2.38,2.63,3.86,3.34,2.14,1.03,4,2.49,6.07,3.6,2.93,1.57,5.96,2.96,9.06,3.87,2.86.83,5.68,2.36,8.87,1.88.36-.05.77.05,1.11.18,2.47.97,5.06,1.25,7.69,1.28,4.49.04,9-.11,13.49.06,5.91.23,11.56-1.08,17.22-2.5,3.12-.78,6.28-1.5,9.11-3,2.14-1.12,4.37-2.04,6.4-3.45,2.34-1.62,4.77-3.08,6.9-5,3.28-2.98,5.92-6.51,8.1-10.26,2.27-3.92,3.24-8.47,4.83-12.72.65-1.74.76-3.49.8-5.3.02-.86.19-1.73.34-2.58,1.03-5.8,1.26-11.65.98-17.52.04-.12.1-.24.1-.36ZM454.59,335.74v-.03h.09s-.05.02-.09.03Z"/>
      <circle class="cls-7" cx="172.67" cy="57.98" r="57.98"/>
      <path class="cls-6" d="M248.74,291.53h-.09v-25.06c.02,6.13.04,12.26.07,18.39,0,2.22,0,4.45.02,6.67Z"/>
      <path class="cls-2" d="M248.72,284.86l-.07.04v-18.43c.02,6.13.04,12.26.07,18.39Z"/>
      <circle class="cls-5" cx="306.44" cy="142.11" r="40.48"/>
      <circle class="cls-5" cx="412.18" cy="205.66" r="29.99"/>
    </g>
  </g>
</svg>