<?xml version="1.0" encoding="UTF-8"?>
<svg id="Layer_2" data-name="Layer 2" xmlns="http://www.w3.org/2000/svg" xmlns:xlink="http://www.w3.org/1999/xlink" viewBox="0 0 411.31 502.59">
  <defs>
    <style>
      .cls-1 {
        fill: url(#linear-gradient);
        stroke-width: 0px;
      }
    </style>
    <linearGradient id="linear-gradient" x1="-261.36" y1="49.84" x2="457.13" y2="392.41" gradientTransform="translate(0 504) scale(1 -1)" gradientUnits="userSpaceOnUse">
      <stop offset=".16" stop-color="#34c0fb"/>
      <stop offset=".3" stop-color="#2575dc"/>
      <stop offset=".38" stop-color="#1e4fcd"/>
      <stop offset=".41" stop-color="#244fcc"/>
      <stop offset=".45" stop-color="#364fcb"/>
      <stop offset=".49" stop-color="#534fc8"/>
      <stop offset=".54" stop-color="#7c50c5"/>
      <stop offset=".59" stop-color="#b050c1"/>
      <stop offset=".61" stop-color="#c351c0"/>
      <stop offset=".71" stop-color="#d85ea2"/>
      <stop offset=".84" stop-color="#ed6b85"/>
      <stop offset=".91" stop-color="#f6717b"/>
    </linearGradient>
  </defs>
  <g id="Layer_1-2" data-name="Layer 1-2">
    <path class="cls-1" d="M241.94,0c52.71,0,93.99,18.58,123.86,55.72,29.86,37.15,44.8,77.81,44.8,121.97,0,17.58-3.89,39.15-11.67,64.75-7.79,25.6-19.71,52.97-35.76,82.07-16.07,29.12-34.76,56.09-56.09,80.94-21.34,24.85-47.56,45.55-78.68,62.12-31.13,16.57-63.75,24.85-97.88,24.85-38.15,0-69.27-14.43-93.36-43.29C13.05,420.27,1,389.77,1,357.64v-1.51c1-45.67,20.07-90.35,57.22-134.02-11.05-6.52-21.08-17.19-30.12-32-9.04-14.8-13.55-30.49-13.55-47.06,0-29.61,21.84-60.86,65.51-93.74C123.73,16.45,177.68,0,241.94,0ZM116.2,429.93c24.59,0,50.45-10.79,77.55-32.38,27.11-21.58,50.94-47.68,71.53-78.3,20.58-30.61,37.65-63.12,51.2-97.51,13.55-34.38,20.33-64.12,20.33-89.22,0-21.58-5.02-37.39-15.06-47.43-12.05-12.05-29.36-18.07-51.95-18.07-25.11,0-52.71,7.28-82.82,21.83-30.12,14.56-55.85,32.51-77.18,53.83-21.34,21.34-32.26,41.29-32.75,59.86,12.05-11.04,24.59-19.32,37.65-24.85,9.53-4.01,19.82-6.02,30.87-6.02,15.06,0,28.35,3.77,39.91,11.29,11.54,7.53,17.32,16.07,17.32,25.6,0,3.01-.26,5.27-.75,6.78-31.62,12.05-61.36,35.01-89.22,68.89s-41.79,66.89-41.79,99.01c0,13.06,3.51,24.1,10.54,33.13,7.02,9.04,18.56,13.55,34.63,13.55h0Z"/>
  </g>
</svg>