<?xml version="1.0" encoding="UTF-8"?>
<svg version="1.1" viewBox="0 0 2048 764" width="1280" height="1280" xmlns="http://www.w3.org/2000/svg">
<path transform="translate(1562,262)" d="m0 0h48v284h-45l-1-1-1-24-6 7-13 9-13 6-15 4-7 1h-26l-15-3-13-4-16-8-12-9-11-11-9-14-6-12-5-16-2-11v-33l4-18 5-14 8-14 11-13 10-9 13-8 13-6 21-5 8-1h19l17 3 12 4 13 7 11 9 1 3h2zm-69 118-15 4-11 6-10 9-7 10-5 11-3 13v21l4 16 7 13 10 11 11 7 10 4 9 2h19l12-3 14-7 11-10 8-13 5-15 1-6v-19l-4-16-7-14-10-11-11-7-13-5-6-1z"/>
<path transform="translate(793,327)" d="m0 0h25l20 4 19 8 13 8 10 8 13 13 10 15 8 17 4 13 2 12 1 17-2 18-4 16-7 16-7 11-8 10-7 8-11 9-11 7-14 7-16 5-12 2h-28l-16-3-21-8-16-10-11-10-5-5-8-9-8-13-7-15-5-19-1-7v-26l4-20 8-19 8-13 9-11 10-10 11-8 14-8 16-6zm2 48-14 4-12 6-12 11-7 9-6 12-3 12v20l4 15 6 11 9 11 12 9 13 6 9 2h22l12-3 15-8 11-10 7-10 6-13 3-17-1-14-4-14-6-11-9-10-9-8-14-7-12-3z" fill="#F8971C"/>
<path transform="translate(1243,339)" d="m0 0h23l21 3 16 5 13 7 10 8 9 11 6 12 4 12 2 11v138h-44l-1-1-1-22-7 8-8 6-12 6-15 4-7 1h-27l-15-3-14-5-11-7-10-9-7-11-5-13-1-6v-14l4-16 6-11 12-12 12-7 21-6 17-2h66l-3-19-5-10-6-7-8-5-13-4-7-1h-18l-14 2-17 5-17 9-5 3-6-10-12-22 1-4 9-6 14-7 18-6 22-4zm-1 119-16 3-10 6-5 7-2 8 1 11 3 6 5 6 12 6 8 2h20l12-3 14-7 7-6 6-9 3-6v-24z" fill="#010000"/>
<path transform="translate(1754,339)" d="m0 0h21l19 3 16 5 16 8 12 9 9 8 8 10 8 14 5 11 4 16 1 7v27l-3 16-6 17-8 14-11 13-11 10-13 8-13 6-17 5-13 2h-28l-20-4-16-6-13-7-13-10-8-8-10-14-8-16-5-19-1-7v-27l3-16 4-12 9-17 7-9 8-9 13-10 10-6 14-6 21-5zm0 41-14 4-8 4-9 7-8 9-6 11-4 13-1 7v17l3 14 5 12 7 10 10 9 14 7 12 3h19l15-4 11-6 10-9 7-10 5-11 3-15v-17l-3-15-8-16-10-11-11-7-10-4-9-2z"/>
<path transform="translate(289,339)" d="m0 0h20l17 3 12 4 13 7 11 9 9 11 8 17 4 17 1 7v132h-47l-1-1-1-122-4-16-7-12-9-7-13-5-6-1h-17l-16 4-11 6-9 9-7 14-3 10-1 8-1 112-1 1h-46l-1-1v-203l1-1h44l1 1 1 24 5-5 8-7 15-8 17-5z" fill="#010000"/>
<path transform="translate(550,339)" d="m0 0h20l18 3 16 6 11 7 10 9 8 10 7 15 4 15 2 16v125l-1 1h-47l-1-119-3-16-7-14-9-8-8-4-12-3h-17l-14 3-12 6-9 8-8 14-4 16-1 116-1 1h-47v-205h45l1 25 8-8 14-9 12-5 17-4z" fill="#010000"/>
<path transform="translate(930,341)" d="m0 0h49l4 8 15 36 11 26 17 41 14 33 2 5 2-2 12-28 26-60 15-35 10-23 1-1h45l-1 6-19 44-36 84-22 51-8 19-1 1h-48l-2-1-72-168-14-33z" fill="#020100"/>
<path transform="translate(739,169)" d="m0 0 13 1 16 5 13 8 11 11 7 11 5 14 1 5v20l-3 12-7 14-9 11-12 9-13 6-16 3h-9l-16-3-16-8-10-8-8-10-6-12-4-14v-20l5-16 4-8 7-9 8-8 13-8 16-5z" fill="#F8971C"/>
<path transform="translate(2026,339)" d="m0 0h11v46h-23l-12 3-14 7-9 9-8 16-3 14-1 111-1 1h-47v-205h45l1 28 11-12 10-7 11-5 14-4z" fill="#010100"/>
<path transform="translate(73,159)" d="m0 0h10l11 3 11 7 7 9 4 9 1 4v15l-4 11-6 8-8 7-8 4-4 1h-18l-12-5-4-2-10 13-11 14-8 10v6l3 3 7-1 32-14 53-23 4-1h8l8 4 7 8 1 2v14l-10 16-12 17-15 22 2 4 6 9 3 8 1 4v183l-3 10-6 10-8 8-14 7-4 1h-18l-11-4-9-6-9-10-5-12-1-5v-181l4-13 7-10 8-7 12-6 5-1h16l10 3 3 1 11-16 15-22 9-13v-7l-3-4-6-1-58 25-28 12-5 2h-9l-6-3-5-5-3-6v-8l3-7 9-11 10-12 10-5 7-4-7-11-4-11v-15l4-11 4-6 8-8 9-5zm3 9-8 2-8 4-7 7-4 9-1 4v8l3 10 6 8 9 6 6 2h12l10-4 8-7 5-10 1-4v-9l-4-11-7-8-8-5-9-2zm-25 60m21 93-11 4-8 7-6 11-1 4v179l4 10 4 6 7 6 11 4h13l10-4 9-8 5-10 1-4v-179l-4-11-8-9-10-5-4-1z"/>
<path transform="translate(594,65)" d="m0 0h21l10 3 10 5 10 8 8 10 5 11 3 12v14l-3 12-7 14-8 9-13 9-11 4-5 1h-19l-14-4-11-7-9-8-7-11-4-10-2-9v-14l4-15 6-11 9-10 10-7 13-5z" fill="#F8971C"/>
<path transform="translate(444,12)" d="m0 0h17l15 5 11 8 8 9 6 13 2 9v14l-4 13-5 9-9 10-11 7-13 4h-17l-13-4-10-6-6-5-7-10-5-11-1-4v-21l5-13 6-9 8-8 10-6z" fill="#F8971C"/>
<path transform="translate(1435,627)" d="m0 0 6 5 11 14 11 13 11 14 11 13 11 14 6 7v2h2v-81l22-1 1 1v122h-20l-11-13-11-14-14-17-18-22-12-15-1 81h-22v-122z"/>
<path transform="translate(586,626)" d="m0 0h22l15 4 12 6 11 9 8 10 6 13 2 8 1 16-2 14-5 13-7 10-5 5-8 7-14 7-16 4h-18l-14-3-12-5-10-7-9-9-8-14-4-13v-24l4-13 5-10 8-10 10-8 12-6zm3 20-10 3-9 5-9 9-5 10-2 7v18l4 12 7 9 8 7 12 5 6 1h12l13-4 8-5 5-5 6-8 4-11 1-12-2-12-6-12-6-7-9-6-13-4z"/>
<path transform="translate(1286,626)" d="m0 0h22l15 4 14 7 12 11 7 10 5 12 2 10v18l-4 15-6 11-7 9-8 7-11 6-11 4-10 2h-18l-17-4-12-6-9-7-8-9-6-10-4-12-1-5v-20l3-12 7-14 11-12 10-7 12-5zm3 20-12 4-9 6-8 9-5 12-1 5v13l3 12 7 11 8 7 10 5 9 2h12l11-3 8-4 9-8 6-11 2-5 1-7v-11l-3-12-7-11-9-8-12-5-4-1z"/>
<path transform="translate(290,17)" d="m0 0h16l10 3 9 5 8 7 7 11 3 9 1 5v11l-3 11-5 10-8 9-9 6-13 4h-16l-13-4-11-8-8-10-5-13-1-6v-9l3-12 5-10 7-8 11-7 7-3z" fill="#F8971C"/>
<path transform="translate(850,627)" d="m0 0h22l1 1 1 78 3 10 6 9 10 5 5 1h11l11-3 8-7 5-12 1-7 1-74 2-1h20v81l-4 16-6 10-9 9-12 6-13 3h-18l-10-2-11-4-9-7-7-8-5-10-3-14z"/>
<path transform="translate(1620,626)" d="m0 0h23l17 4 12 6-1 6-5 12-4-1-13-5-9-2h-17l-10 3-5 4-2 5v7l3 5 10 5 30 8 13 5 10 9 4 6 2 10-1 11-4 9-7 8-9 6-13 4-6 1h-20l-15-3-12-4-10-6-1-4 7-15 5 2 10 5 13 4 6 1h14l9-2 8-5 2-5-1-9-6-5-11-4-26-7-12-5-8-6-5-6-3-10v-10l3-10 6-9 8-6 12-5z"/>
<path transform="translate(428,626)" d="m0 0h24l17 4 12 6-1 5-5 13-5-1-12-5-9-2h-18l-11 4-4 4-1 3v9l4 5 12 5 30 8 9 4 8 6 5 6 3 7v16l-4 10-8 9-14 7-14 3h-19l-16-3-13-5-9-6-1-2 8-16 5 2 12 6 10 3 7 1h14l9-2 7-4 3-7-1-7-5-5-9-4-32-9-10-4-10-9-4-8-1-4v-13l4-11 8-9 8-5 12-4z" fill="#010000"/>
<path transform="translate(73,159)" d="m0 0h10l11 3 11 7 7 9 4 9 1 4v15l-4 11-6 8-8 7-8 4-4 1h-18l-12-5-4-2-10 13-11 14-8 10v6l3 3 7-1 32-14 53-23 4-1h8l8 4 7 8 1 2v14l-10 16-12 17-15 22h-3l-8-6 7-11 8-12 11-16 9-13v-7l-3-4-6-1-58 25-28 12-5 2h-9l-6-3-5-5-3-6v-8l3-7 9-11 10-12 10-5 7-4-7-11-4-11v-15l4-11 4-6 8-8 9-5zm3 9-8 2-8 4-7 7-4 9-1 4v8l3 10 6 8 9 6 6 2h12l10-4 8-7 5-10 1-4v-9l-4-11-7-8-8-5-9-2z" fill="#F8971C"/>
<path transform="translate(166,77)" d="m0 0h12l13 4 8 6 8 9 4 10 1 5v12l-3 10-5 8-5 6-10 6-9 3h-16l-11-4-9-7-7-9-4-11v-16l4-11 4-6 4-5 11-7z" fill="#F8971C"/>
<path transform="translate(1e3 627)" d="m0 0h103l1 1v19h-41v103h-23v-103h-40z"/>
<path transform="translate(718,627)" d="m0 0 22 1v103h64v19h-87v-122z"/>
<path transform="translate(1154,627)" d="m0 0h22v123h-23v-122z"/>
<path transform="translate(1728,689)" d="m0 0h310v7l-1 1h-308l-1-1z" fill="#F8971C"/>
<path transform="translate(34,689)" d="m0 0h309v8h-309z" fill="#F8971C"/>
<path transform="translate(73,159)" d="m0 0h10l11 3 11 7 7 9 4 9 1 4v15l-4 11-6 8-8 7-8 4-4 1h-18l-12-5-9-7-7-12-2-7v-15l4-11 4-6 8-8 9-5zm3 9-8 2-8 4-7 7-4 9-1 4v8l3 10 6 8 9 6 6 2h12l10-4 8-7 5-10 1-4v-9l-4-11-7-8-8-5-9-2z" fill="#020100"/>
</svg>
