<?xml version="1.0" encoding="UTF-8"?>
<svg id="Layer_2" data-name="Layer 2" xmlns="http://www.w3.org/2000/svg" xmlns:xlink="http://www.w3.org/1999/xlink" viewBox="0 0 1764.16 502.59">
  <defs>
    <style>
      .cls-1 {
        fill: url(#linear-gradient);
      }

      .cls-1, .cls-2 {
        stroke-width: 0px;
      }

      .cls-2 {
        fill: #273066;
      }
    </style>
    <linearGradient id="linear-gradient" x1="-262.36" y1="454.16" x2="456.13" y2="111.59" gradientUnits="userSpaceOnUse">
      <stop offset=".16" stop-color="#34c0fb"/>
      <stop offset=".3" stop-color="#2575dc"/>
      <stop offset=".38" stop-color="#1e4fcd"/>
      <stop offset=".41" stop-color="#244fcc"/>
      <stop offset=".45" stop-color="#364fcb"/>
      <stop offset=".49" stop-color="#534fc8"/>
      <stop offset=".54" stop-color="#7c50c5"/>
      <stop offset=".59" stop-color="#b050c1"/>
      <stop offset=".61" stop-color="#c351c0"/>
      <stop offset=".71" stop-color="#d85ea2"/>
      <stop offset=".84" stop-color="#ed6b85"/>
      <stop offset=".91" stop-color="#f6717b"/>
    </linearGradient>
  </defs>
  <g id="Layer_1-2" data-name="Layer 1">
    <g>
      <g>
        <path class="cls-2" d="M636.53,249.4c17.19,17.05,25.79,37.66,25.79,61.81s-8.6,44.83-25.79,62.02c-17.2,17.2-37.87,25.79-62.02,25.79h-117.22v-54.13h117.22c9.38,0,17.33-3.26,23.87-9.81,6.53-6.53,9.8-14.42,9.8-23.66s-3.27-17.12-9.8-23.66c-6.54-6.53-14.49-9.8-23.87-9.8h-29.41c-24.16,0-44.83-8.59-62.02-25.79-17.2-17.19-25.79-37.86-25.79-62.02s8.59-44.82,25.79-62.02c17.19-17.19,37.86-25.79,62.02-25.79h91.64v54.13h-91.64c-9.38,0-17.34,3.27-23.87,9.8-6.54,6.54-9.8,14.43-9.8,23.66s3.26,17.2,9.8,23.87c6.53,6.68,14.49,10.02,23.87,10.02h29.41c24.15,0,44.82,8.52,62.02,25.58Z"/>
        <path class="cls-2" d="M889.51,438.65c0,3.41,1.2,5.82,3.62,7.25,2.41,1.42,5.04,2.13,7.89,2.13v54.56c-18.47,0-34.03-6.18-46.67-18.54-12.65-12.36-18.97-27.49-18.97-45.4v-46.89c-15.07,8.24-31.12,12.36-48.17,12.36-28.42,0-52.64-10.08-72.68-30.26-20.03-20.17-30.05-44.33-30.05-72.46v-11.08c0-28.13,10.02-52.28,30.05-72.46,20.03-20.17,44.18-30.26,72.46-30.26s52.43,10.09,72.46,30.26c20.03,20.18,30.05,44.33,30.05,72.46v148.33ZM835.37,301.4v-11.08c0-13.35-4.76-24.79-14.28-34.31-9.52-9.52-20.89-14.28-34.1-14.28s-24.58,4.76-34.1,14.28c-9.52,9.52-14.28,20.96-14.28,34.31v11.08c0,13.36,4.76,24.72,14.28,34.1,9.52,9.38,20.89,14.07,34.1,14.07s24.58-4.69,34.1-14.07c9.52-9.38,14.28-20.74,14.28-34.1Z"/>
        <path class="cls-2" d="M1073.64,192.71h54.13v108.69c0,28.42-10.02,52.64-30.05,72.67-20.03,20.03-44.19,30.05-72.46,30.05s-52.43-10.02-72.46-30.05c-20.03-20.03-30.05-44.26-30.05-72.67v-108.69h54.13v108.69c0,13.36,4.76,24.79,14.28,34.31,9.52,9.52,20.89,14.28,34.1,14.28s24.58-4.76,34.1-14.28c9.52-9.52,14.28-20.95,14.28-34.31v-108.69Z"/>
        <path class="cls-2" d="M1259.06,187.59c18.47,0,35.59,4.62,51.36,13.85,15.77,9.24,28.2,21.74,37.3,37.51,9.09,15.77,13.64,32.89,13.64,51.36v108.69h-54.13v-108.69c0-13.35-4.76-24.79-14.28-34.31-9.52-9.52-20.89-14.28-34.1-14.28s-24.58,4.76-34.1,14.28c-9.52,9.52-14.28,20.96-14.28,34.31v11.08c0,13.36,4.76,24.72,14.28,34.1,9.52,9.38,20.95,14.07,34.31,14.07,7.1,0,14.07-1.7,20.89-5.12v57.12c-6.82,1.7-13.79,2.56-20.89,2.56-28.42,0-52.64-10.08-72.68-30.26-20.03-20.17-30.05-44.33-30.05-72.46v-11.08c0-28.13,10.02-52.28,30.05-72.46,20.03-20.17,44.26-30.26,72.68-30.26Z"/>
        <path class="cls-2" d="M1497.33,192.71h44.33v54.56h-44.33c-13.36,0-24.8,4.69-34.31,14.07-9.52,9.38-14.28,20.75-14.28,34.1v103.58h-54.13v-103.58c0-28.13,10.02-52.28,30.05-72.46,20.03-20.17,44.26-30.26,72.68-30.26Z"/>
        <path class="cls-2" d="M1589.19,217.85c20.03-20.17,44.18-30.26,72.46-30.26s52.43,10.09,72.46,30.26c20.03,20.18,30.05,44.33,30.05,72.46v11.08c0,5.4-.57,11.08-1.7,17.05h-145.78c3.41,9.38,9.23,16.91,17.47,22.59,8.24,5.69,17.48,8.52,27.71,8.52,11.93,0,22.59-4.12,31.97-12.36l54.13,19.61c-9.38,14.49-21.67,26-36.87,34.53-15.21,8.53-31.61,12.79-49.23,12.79-28.42,0-52.64-10.08-72.68-30.26-20.03-20.17-30.05-44.33-30.05-72.46v-11.08c0-28.13,10.02-52.28,30.05-72.46ZM1616.68,273.27h89.94c-3.41-9.38-9.24-16.9-17.47-22.59-8.25-5.68-17.41-8.52-27.49-8.52s-19.25,2.84-27.49,8.52c-8.24,5.69-14.07,13.21-17.47,22.59Z"/>
      </g>
      <path class="cls-1" d="M240.94,0c52.71,0,93.99,18.58,123.86,55.72,29.86,37.15,44.8,77.81,44.8,121.97,0,17.58-3.89,39.15-11.67,64.75-7.79,25.6-19.71,52.97-35.76,82.07-16.07,29.12-34.76,56.09-56.09,80.94-21.34,24.85-47.56,45.55-78.68,62.12-31.13,16.57-63.75,24.85-97.88,24.85-38.15,0-69.27-14.43-93.36-43.29C12.05,420.27,0,389.77,0,357.64v-1.51c1-45.67,20.07-90.35,57.22-134.02-11.05-6.52-21.08-17.19-30.12-32-9.04-14.8-13.55-30.49-13.55-47.06,0-29.61,21.84-60.86,65.51-93.74C122.73,16.45,176.68,0,240.94,0ZM115.2,429.93c24.59,0,50.45-10.79,77.55-32.38,27.11-21.58,50.94-47.68,71.53-78.3,20.58-30.61,37.65-63.12,51.2-97.51,13.55-34.38,20.33-64.12,20.33-89.22,0-21.58-5.02-37.39-15.06-47.43-12.05-12.05-29.36-18.07-51.95-18.07-25.11,0-52.71,7.28-82.82,21.83-30.12,14.56-55.85,32.51-77.18,53.83-21.34,21.34-32.26,41.29-32.75,59.86,12.05-11.04,24.59-19.32,37.65-24.85,9.53-4.01,19.82-6.02,30.87-6.02,15.06,0,28.35,3.77,39.91,11.29,11.54,7.53,17.32,16.07,17.32,25.6,0,3.01-.26,5.27-.75,6.78-31.62,12.05-61.36,35.01-89.22,68.89-27.86,33.88-41.79,66.89-41.79,99.01,0,13.06,3.51,24.1,10.54,33.13,7.02,9.04,18.56,13.55,34.63,13.55Z"/>
    </g>
  </g>
</svg>